<?xml version="1.0"?><svg width="1600" height="1200" xmlns="http://www.w3.org/2000/svg">
 <title>border, rope, western</title>
 <metadata id="metadata1342">image/svg+xml</metadata>
 <g>
  <title>Layer 1</title>
  <path d="m629.385803,1126.882813c-3.819275,-0.797485 -6.307434,-0.838135 -11.885071,-0.197021c-5.921753,0.681763 -8.094727,0.609863 -13.535522,-0.447144c-3.566223,-0.694214 -7.211365,-1.22583 -8.102905,-1.182251c-0.891663,0.043945 -5.050964,0.256592 -9.243408,0.475464c-5.930176,0.303345 -9.065125,0.062622 -14.091248,-1.097656c-5.320435,-1.225952 -7.306824,-1.357178 -11.27533,-0.747437c-5.204407,0.803711 -9.442566,0.484741 -17.595337,-1.313477c-2.865601,-0.631714 -9.471497,-1.197632 -14.680115,-1.254028c-8.679321,-0.100098 -9.935913,-0.306519 -15.160889,-2.529907c-3.910706,-1.663818 -6.402771,-2.273682 -7.937103,-1.938965c-6.896454,1.497925 -22.737488,-0.716064 -29.020142,-4.056274c-1.754089,-0.934937 -5.154572,-1.460205 -11.192413,-1.735474c-8.14035,-0.372192 -17.864777,-2.536255 -19.490479,-4.34082c-0.327545,-0.356323 -3.114258,-0.656616 -6.199585,-0.65979c-3.085327,-0.003174 -7.862579,-0.475464 -10.624329,-1.047607c-4.582336,-0.953979 -13.664063,-4.343872 -14.966156,-5.591553c-0.298523,-0.284546 -4.673462,-0.716187 -9.724457,-0.957031c-10.371246,-0.494141 -13.784332,-1.438599 -20.498016,-5.679199c-4.084656,-2.580078 -5.36618,-2.970947 -9.716187,-2.970947c-8.194336,0 -17.748688,-2.626831 -23.264099,-6.401611c-2.653931,-1.813721 -5.196045,-3.152344 -5.648041,-2.967896c-0.456177,0.181519 -3.379761,0.537964 -6.506531,0.791382c-3.122589,0.253296 -7.497498,0.634888 -9.720276,0.844482c-7.087128,0.669067 -35.111755,4.115479 -42.389496,5.213135c-3.864929,0.584839 -8.240021,1.241455 -9.724457,1.463501c-1.48465,0.218872 -5.374512,0.941406 -8.642242,1.6073c-3.2677,0.662964 -6.427643,1.272949 -7.020599,1.354248c-0.593079,0.081299 -5.98819,1.51062 -11.988678,3.171021c-29.190109,8.084229 -42.319153,7.108398 -80.51619,-5.976196c-23.873688,-8.177856 -33.938187,-9.982178 -56.567818,-10.135498c-20.481537,-0.140869 -26.096413,-0.63501 -32.87236,-2.892944c-4.79805,-1.5979 -6.684814,-2.827026 -10.375557,-6.758057c-5.283142,-5.629028 -11.325195,-17.090576 -12.104839,-22.963501c-0.593006,-4.465942 0.841885,-7.327515 3.674129,-7.327515c1.870296,0 1.741714,-0.822388 -1.227428,-7.755737c-1.277279,-2.983398 -1.480495,-7.386719 -1.045033,-22.904297c0.667656,-23.892517 1.360184,-34.118652 2.500549,-36.955261c0.850147,-2.117126 1.094818,-2.192139 6.452606,-1.995178c5.35775,0.200134 5.569244,0.13446 5.569244,-1.716797c0,-1.200989 -1.322838,-2.811584 -3.508263,-4.271912l-3.512398,-2.342407l0.190712,-10.345093c0.103683,-5.688477 0.949654,-14.332397 1.878571,-19.207825c0.93309,-4.875427 1.468002,-10.029297 1.194405,-11.452209c-0.427238,-2.214172 0.725586,-12.218384 1.795509,-15.545898c0.456223,-1.422729 3.147461,-2.87085 5.390945,-2.902039c1.438957,-0.018738 1.725136,-0.587891 1.39344,-2.792664c-0.70507,-4.737915 -0.858429,-27.07312 -0.190796,-28.630371c1.72924,-4.043701 1.812134,-17.53479 0.149246,-24.493103c-1.832893,-7.680542 -2.645699,-40.417236 -1.538506,-62.314514c0.393982,-7.849609 0.14109,-11.649292 -0.94957,-14.213684c-1.322899,-3.117859 -1.264847,-4.077942 0.518379,-8.784485c1.50528,-3.968628 2.736862,-5.654236 4.947182,-6.77063c2.143944,-1.085144 2.695465,-1.807556 2.032036,-2.667603c-1.965683,-2.536194 -3.512444,-12.859375 -3.835915,-25.559448c-0.269524,-10.632751 0.070465,-14.760864 1.683655,-20.590027c1.273087,-4.591003 1.667053,-7.746399 1.06572,-8.515808c-3.964439,-5.069275 -4.354294,-23.898743 -1.194313,-58.264648c1.306366,-14.219849 1.405823,-14.948486 3.101898,-21.975525c1.662895,-6.892578 6.784386,-14.667053 11.38736,-17.27832c2.558617,-1.451172 2.18959,-2.883362 -1.467979,-5.732361c-1.779007,-1.385437 -4.250526,-3.884094 -5.494652,-5.551025c-4.337685,-5.813599 -4.9804,-8.578125 -4.10952,-17.612915c0.451942,-4.67218 1.173508,-22.185059 1.604813,-38.916077l0.77961,-30.416168l-6.083527,-4.262512c-3.678276,-2.576843 -6.705482,-5.510284 -7.659317,-7.421051c-0.887444,-1.782623 -3.280228,-4.1875 -5.494652,-5.516571c-6.498211,-3.899719 -11.810322,-10.132446 -12.876076,-15.101715c-0.128551,-0.587891 -1.754154,-2.148468 -3.620266,-3.465057c-4.532528,-3.202332 -7.879032,-8.596954 -8.517673,-13.719482c-0.344181,-2.761353 -1.820469,-5.985626 -4.333481,-9.447571c-3.321655,-4.581482 -3.802773,-5.929321 -3.740532,-10.495209c0.037277,-2.883331 -0.398129,-5.438385 -0.966213,-5.682281c-0.572281,-0.240814 -2.077635,-2.770813 -3.342415,-5.626038c-1.704372,-3.834076 -2.119066,-6.132629 -1.600687,-8.815826c0.526636,-2.708282 0.240543,-4.246918 -1.123833,-6.041962c-3.761215,-4.953644 -5.415884,-10.31073 -4.486885,-14.532532c0.692482,-3.167969 0.456093,-4.769135 -1.157053,-7.75885c-3.143303,-5.826172 -3.574591,-8.671997 -1.899269,-12.481018c1.401731,-3.18045 1.360207,-3.602722 -0.489311,-5.213257c-4.449623,-3.865326 -5.527819,-13.628815 -2.077604,-18.823212c1.617311,-2.442474 1.853624,-3.549469 0.986959,-4.656525c-0.626202,-0.797516 -1.397486,-3.677704 -1.716829,-6.401581c-0.46443,-3.943573 -0.14098,-5.63855 1.575834,-8.343628c1.704357,-2.676971 2.040279,-4.406372 1.59243,-8.209167c-0.568161,-4.853607 1.372585,-10.767303 4.681845,-14.254211c1.01186,-1.06958 1.132074,-2.295471 0.431303,-4.425171c-1.044983,-3.161713 -0.29863,-9.031616 1.227455,-9.675842c0.510027,-0.21579 0.933025,-0.953857 0.937178,-1.641876c0.004122,-0.687958 0.725672,-2.195343 1.604856,-3.346191c1.215029,-1.59494 1.318666,-2.461182 0.418846,-3.608917c-2.094198,-2.673798 -0.646933,-10.832947 2.786695,-15.720917c2.455034,-3.496307 3.164064,-5.600983 3.346552,-9.972931c0.244617,-5.70108 1.749969,-8.981628 6.485752,-14.113525c1.824619,-1.973297 2.641594,-3.934143 2.658173,-6.373444c0.020683,-3.552597 2.513046,-8.234161 6.332264,-11.902512c1.140442,-1.091431 2.363777,-3.146057 2.720383,-4.562729c2.007046,-7.968369 5.764187,-12.753098 12.975643,-16.514008c2.114845,-1.102356 3.769516,-2.240402 3.682396,-2.528732c-0.087074,-0.28804 0.489403,-2.17627 1.281494,-4.195862c1.169403,-2.967224 2.911102,-4.66098 9.085762,-8.825592c8.691925,-5.861801 8.248169,-4.554291 6.788498,-20.010025c-1.032578,-10.917419 -2.757683,-19.029297 -5.183609,-24.380722c-3.375557,-7.449249 -5.266541,-13.848648 -5.283257,-17.859383c-0.020653,-4.47673 2.061058,-6.537598 11.715088,-11.606979c15.787216,-8.287033 63.696335,-28.156326 72.848541,-30.212227c8.538391,-1.917343 34.278107,-2.367661 48.842072,-0.854675c28.186447,2.928093 43.907288,5.094055 62.161926,8.565666l8.161224,1.552414l5.710205,-2.955009c6.560364,-3.397491 12.65213,-4.872322 19.465454,-4.715027c3.421265,0.07914 5.415863,-0.301453 7.037292,-1.341911c3.682434,-2.366425 12.324646,-4.610588 19.39502,-5.034645c4.00174,-0.240181 8.691925,-1.137703 11.918274,-2.280426c4.544861,-1.612144 6.64328,-1.874207 14.514099,-1.815414c5.059235,0.037544 12.092346,-0.334908 15.625427,-0.827789c4.022491,-0.560707 8.687775,-0.686432 12.469849,-0.335571c4.433014,0.41156 7.431213,0.250511 11.246338,-0.603218c3.819214,-0.854393 7.373108,-1.044205 13.352997,-0.713982c5.859528,0.323982 8.957184,0.167618 11.0224,-0.554787c5.838776,-2.043076 18.777161,-2.661346 24.512238,-1.170555c1.832977,0.476593 3.794373,0.326202 6.680695,-0.511299c5.096558,-1.478897 17.985107,-1.654327 22.733246,-0.309303c2.8862,0.818428 4.399872,0.830299 8.38504,0.067566c6.282379,-1.203079 18.959595,-0.61264 22.683655,1.056702c2.363647,1.05983 3.391998,1.117722 6.672333,0.377144c5.457153,-1.231819 16.201843,-0.489098 20.979004,1.450768c3.180664,1.290939 4.462036,1.446068 6.834045,0.828743c1.608948,-0.417839 6.294983,-0.794647 10.421082,-0.837822c6.220398,-0.064713 8.521973,0.276779 13.510742,2.003067c3.446045,1.192101 7.406311,2.008011 9.28064,1.910118c5.490417,-0.285828 16.044495,1.34758 20.182922,3.122635c2.567078,1.103004 6.402893,1.837296 11.159363,2.136559c6.867371,0.431572 13.02124,2.013351 19.220947,4.939873c1.484619,0.701157 5.577515,1.498314 9.093994,1.771927c8.069885,0.627029 15.21521,2.76519 20.087646,6.011917c2.148071,1.43232 6.494141,3.164528 10.022949,3.99453c7.991089,1.880424 13.962708,4.816658 17.466736,8.583466c2.206299,2.378647 3.790344,3.175507 7.73407,3.896645c5.527771,1.011688 13.187073,4.341904 16.3927,7.128372c2.052612,1.786926 2.450684,1.830414 16.612488,1.820389c12.258179,-0.008469 15.248047,0.220779 19.307922,1.480789c6.149963,1.907928 11.287781,1.859467 28.493225,-0.267105c10.86908,-1.343491 18.296143,-1.751587 33.490356,-1.840714c19.983826,-0.116959 26.859436,-0.34433 47.606506,-1.574295c6.535339,-0.387787 15.04071,-0.887848 18.901428,-1.112091c10.951965,-0.635117 42.538757,-3.485336 52.93512,-4.776306c3.2677,-0.40593 10.728027,-1.23996 16.579163,-1.853546c5.85144,-0.613541 11.441345,-1.398521 12.419922,-1.74437c0.98291,-0.345894 3.728149,-0.862862 6.108643,-1.149628c2.376099,-0.286774 8.451233,-1.317535 13.502075,-2.291069c13.718079,-2.645065 22.646301,-3.394981 39.967773,-3.359009c14.26123,0.029404 20.216064,0.233612 32.947266,1.130844c27.439941,1.932632 31.976563,2.069954 54.013306,1.633987c13.066772,-0.258614 30.566772,-0.680809 38.885376,-0.937889c26.506714,-0.819649 41.891968,1.431992 45.536987,6.664299c1.716675,2.462761 1.708618,2.856804 -0.199097,7.161217c-1.380859,3.11853 -4.3125,6.679276 -9.30127,11.292328c-8.165405,7.551201 -13.8302,13.862663 -23.612549,26.315605c-3.670166,4.672836 -7.439453,9.08107 -8.372437,9.79628c-1.173584,0.894394 -1.791504,3.081329 -1.990601,7.018311c-0.547241,10.81601 -1.555176,21.24527 -2.637451,27.266907c-0.59314,3.318359 -1.297852,9.232071 -1.567505,13.144318c-0.265381,3.912247 -0.705078,7.358566 -0.978638,7.658783c-0.269653,0.300217 -0.808716,3.693329 -1.198608,7.543045c-0.389771,3.846558 -0.875,7.733795 -1.086304,8.637619c-0.48938,2.123398 -1.484863,11.302017 -2.164795,19.986526c-0.555664,7.167816 -1.949097,12.562378 -3.927124,15.220612c-0.6427,0.859985 -4.151001,3.655792 -7.796143,6.207672l-6.630859,4.637787l1.994751,2.379883c6.294922,7.518005 6.78418,8.959717 7.062012,20.871582c0.240479,10.107452 -2.185303,30.278503 -4.221436,35.141449c-0.663574,1.576202 -0.622314,6.201416 0.111816,12.959534l1.140503,10.510895l3.744507,2.714447c4.487183,3.255524 7.427368,7.064575 8.468018,10.980011c0.418945,1.585541 2.143799,4.077972 3.831787,5.541534c3.657471,3.174194 6.494141,8.656403 6.494141,12.546692c0,1.854523 0.72168,3.258667 2.119019,4.121826c2.695435,1.669891 5.444946,7.308502 5.938354,12.177704c0.26123,2.573761 1.227417,4.543976 3.018799,6.160797c3.682495,3.314911 5.366089,7.280334 5.536133,13.043945c0.091187,3.036591 0.796265,5.626007 1.828979,6.736237c3.391968,3.646362 4.702393,7.058258 4.80603,12.49353c0.078979,4.300049 0.700928,6.407806 2.737061,9.259918c2.181274,3.058533 2.645752,4.837952 2.683105,10.345123c0.032959,4.60022 0.576416,7.330353 1.762207,8.865875c0.945435,1.216553 2.098389,3.377502 2.558716,4.800385c0.891602,2.755127 0.966187,10.27005 0.103638,10.861115c-0.281982,0.193939 0.883179,1.860779 2.591675,3.702759c3.214111,3.461914 3.388184,5.23822 2.011475,20.161713c-0.095337,1.013184 0.671753,3.34314 1.704468,5.169434c1.451172,2.570618 1.729126,4.556458 1.231567,8.737671c-0.356567,2.980225 -1.078369,5.938721 -1.600952,6.579773c-0.621826,0.76001 -0.27356,2.217285 0.995361,4.190613c2.890503,4.481445 3.545654,10.438965 1.679321,15.217468c-1.447144,3.696472 -1.42627,4.228027 0.228394,5.910522c1.430542,1.451111 1.862061,3.824707 2.027588,11.080078c0.112183,5.081848 0.547607,11.674255 0.962158,14.651428c0.485352,3.518188 0.282104,6.76123 -0.592773,9.244263c-1.057495,3.020935 -1.065918,4.52832 -0.025024,7.145874c0.721558,1.823181 1.273193,4.809814 1.227417,6.639282c-0.091064,3.655701 -2.102295,10.273254 -3.483521,11.477173c-0.480713,0.419128 -0.434937,1.247864 0.099854,1.838928c1.940674,2.151489 2.193481,8.465576 0.526367,13.281616c-0.916504,2.639465 -1.77478,8.625061 -1.911621,13.297241c-0.140869,4.672119 -0.709106,8.981628 -1.264526,9.572632c-1.028809,1.094604 -1.812378,12.218384 -1.671387,23.726807c0.045654,3.483887 -0.472656,7.805847 -1.148682,9.607117c-0.676025,1.798157 -1.306152,6.927002 -1.401733,11.395874c-0.153442,7.339844 -0.452148,8.46875 -3.072876,11.64917c-1.654541,2.007751 -2.703613,4.231262 -2.434204,5.172546c1.588257,5.572937 0.186646,11.051941 -4.059692,15.868042c-1.559326,1.766846 -2.181519,3.993408 -2.380371,8.493713c-0.211548,4.719055 -0.845947,6.851929 -2.811646,9.425598c-2.056763,2.689514 -2.554443,4.521973 -2.625,9.604004c-0.074585,5.325806 -0.530884,6.861206 -3.00647,10.091736c-2.442505,3.183655 -2.819702,4.41571 -2.293213,7.44928c0.812866,4.700317 -1.082275,10.639099 -4.490967,14.069641c-2.359741,2.37677 -2.699707,3.515137 -2.699707,9.037964c0,4.928589 -0.489258,6.96759 -2.214355,9.250549c-1.310547,1.72937 -2.454956,5.04126 -2.803467,8.096558c-1.00354,8.74707 -0.468506,37.205444 0.866943,46.199646c1.471924,9.944824 0.92041,12.180786 -3.433716,13.878967c-2.202148,0.859985 -3.002441,1.63855 -2.591797,2.529907c0.327393,0.706848 0.812622,2.204834 1.078003,3.324341c0.265503,1.122681 1.082397,3.699585 1.812256,5.732361c1.476196,4.118713 1.667236,34.95697 0.27771,45.173828c-0.588745,4.331299 -0.335693,8.055908 0.908325,13.297302c3.37146,14.232239 5.088257,23.629883 5.577637,30.55365c1.310303,18.497986 1.9198,22.707397 3.997559,27.607666c1.248291,2.946167 2.284912,7.643188 2.34729,10.651733c0.066162,2.961426 0.6427,5.619751 1.281128,5.910522c0.74646,0.340942 1.13623,4.359619 1.086426,11.242676c-0.041382,5.891724 0.323608,14.535645 0.812988,19.207886c0.825073,7.940308 0.733887,8.656372 -1.389404,10.94873c-3.097534,3.346191 -9.554321,5.119263 -21.737793,5.97937c-5.602539,0.394043 -15.770752,1.094482 -22.604736,1.557373c-6.829956,0.465942 -14.609497,1.197754 -17.284302,1.629395c-5.35791,0.866333 -17.454224,4.393799 -19.660522,5.7323c-0.77124,0.465942 -5.884277,2.970947 -11.366577,5.563477c-14.227905,6.73291 -23.803101,8.828369 -40.266235,8.806519c-13.025574,-0.015747 -17.425354,-0.544189 -35.107727,-4.200195c-28.684082,-5.929199 -58.500244,-10.154175 -95.059326,-13.465942c-7.132568,-0.647461 -14.66748,-1.341675 -16.745178,-1.5448c-2.081787,-0.203491 -8.886841,-0.866333 -15.123657,-1.470093l-11.341797,-1.097412l-3.201355,2.708252c-3.301025,2.795654 -14.369019,6.92688 -18.557312,6.92688c-1.273193,0 -4.648743,1.322876 -7.50592,2.936523c-5.208557,2.945801 -12.718628,5.191284 -17.342346,5.191284c-1.355957,0 -4.026672,1.041382 -5.934204,2.317383c-4.578247,3.061523 -14.099365,5.976318 -20.862976,6.389038c-3.728149,0.228271 -6.307434,0.87561 -8.152954,2.04834c-4.582153,2.908447 -14.020508,5.485229 -20.108215,5.491577c-3.75708,0.006226 -6.352905,0.453369 -8.103149,1.394653c-3.230347,1.735718 -11.631897,3.712158 -18.134277,4.268799c-2.732727,0.231445 -6.75531,1.204102 -8.940735,2.161011c-5.697693,2.495605 -12.896667,3.540039 -20.858887,3.030396c-5.312134,-0.337891 -8.231506,-0.103271 -13.008667,1.044434c-4.155273,0.997681 -8.488708,1.435303 -13.324036,1.344849c-4.76062,-0.087769 -8.61731,0.293945 -11.486877,1.135132c-5.648071,1.660645 -16.04425,2.004517 -22.111206,0.734863l0,0zm15.621216,-3.96228c1.990601,-0.531616 1.907654,-0.662964 -1.078125,-1.723022c-3.939514,-1.397949 -10.902161,-7.14917 -16.313965,-13.478638c-4.918091,-5.748047 -8.343506,-6.69873 -16.127319,-4.475098l-3.748718,1.07251l1.949036,3.386841c2.409424,4.193726 9.206177,10.16687 14.36084,12.612427c5.461304,2.592529 16.060791,3.909058 20.958252,2.60498zm-30.29718,-0.734863c0.335999,-0.372192 -1.555054,-2.408081 -4.196655,-4.525269c-3.010681,-2.414063 -5.867798,-5.844849 -7.655212,-9.19104c-2.417664,-4.53772 -3.40863,-5.522705 -6.576965,-6.557983c-6.141541,-2.004517 -15.538391,-1.160278 -15.538391,1.391724c0,1.491699 6.062683,9.888428 8.447266,11.696045c4.171753,3.161621 10.018921,5.694702 15.459595,6.695557c6.942017,1.275879 9.247742,1.38855 10.060364,0.490967zm-31.736084,-5.075562c-2.343018,-2.351807 -5.635681,-6.589355 -7.310913,-9.422607c-4.014282,-6.776855 -4.051697,-6.811279 -9.015564,-7.827637c-5.212524,-1.06958 -13.41925,0.347046 -12.411682,2.138916c0.323425,0.578613 0.908325,1.932861 1.293884,3.011719c1.248169,3.458862 8.882751,10.939331 13.315735,13.040771c4.515869,2.13916 9.031982,3.127441 14.874939,3.255737l3.516541,0.074951l-4.262939,-4.271851l0,0zm87.283752,3.070923l3.36731,-0.459595l-5.664612,-4.21875c-3.114441,-2.320557 -7.60553,-6.095215 -9.981689,-8.390625c-2.886108,-2.786377 -5.494629,-4.443726 -7.854126,-4.988037c-4.064026,-0.93811 -11.445496,-0.293823 -15.032532,1.313477l-2.409363,1.078979l2.778381,3.077148c9.114929,10.085693 21.178162,14.451294 34.796631,12.587402zm-111.804504,-0.856812c0.290405,-0.31897 -1.310303,-2.564453 -3.553833,-4.988037c-2.243347,-2.423706 -5.158752,-6.39856 -6.481567,-8.831543c-1.322815,-2.432983 -2.956787,-4.878662 -3.632751,-5.432129c-2.745117,-2.26416 -11.001526,-3.389893 -16.048462,-2.186035c-2.919312,0.69751 -3.226318,1.03833 -2.662231,2.9646c0.924744,3.165039 3.354675,6.373535 7.949585,10.489136c5.220886,4.684692 8.115479,6.073242 15.389099,7.389771c7.054016,1.279053 8.343567,1.363403 9.040161,0.594238zm141.454956,-1.688843c3.40863,-0.647217 3.902039,-0.966187 2.840576,-1.844971c-0.709229,-0.581787 -1.833008,-1.060303 -2.504883,-1.066528c-2.409241,-0.012573 -10.777649,-5.244507 -16.628967,-10.395142c-6.473267,-5.694824 -5.229187,-5.363281 -14.783752,-3.968506c-1.161133,0.168945 -3.039734,0.941284 -4.175903,1.717041c-2.027771,1.388306 -1.99054,1.472656 2.255981,5.369385c6.340637,5.813843 10.251038,8.062256 16.662048,9.578979c6.614441,1.560547 10.549805,1.70752 16.3349,0.609741zm-169.504456,-1.610474c-0.427124,-0.506714 -2.37616,-2.442505 -4.333496,-4.296875c-1.953186,-1.854492 -4.773071,-5.679199 -6.261841,-8.496826c-3.458496,-6.539307 -7.472778,-9.191162 -13.892029,-9.175415c-6.046265,0.012329 -9.434235,0.681641 -9.434235,1.860596c0,4.747314 13.00473,16.114868 21.89975,19.148438c5.901001,2.007813 13.406799,2.608276 12.021851,0.960083l0,0zm196.011353,-4.37207l3.628479,-0.781738l-4.167664,-1.3479c-6.066895,-1.963867 -12.498779,-5.657349 -18.266968,-10.492188c-2.786743,-2.335938 -5.415833,-4.246704 -5.84314,-4.246704c-2.409302,0 -11.341675,2.298584 -13.058594,3.358765c-1.944763,1.207153 -1.89093,1.354004 1.775024,4.669067c9.782532,8.843872 21.986694,11.846069 35.932861,8.840698zm-224.529663,0.262695c0,-0.331421 -1.434753,-1.541748 -3.189026,-2.689453c-2.973145,-1.948242 -8.695831,-10.204346 -8.695831,-12.546753c0,-1.672974 -5.042694,-5.303955 -9.285065,-6.67981c-2.869507,-0.931885 -5.204254,-1.138428 -8.78717,-0.769287l-4.88089,0.500244l0.667542,3.339966c0.833618,4.162598 6.153961,11.098877 10.947906,14.276245c1.998779,1.322754 6.216278,3.017822 9.37616,3.765259c5.930054,1.401001 13.846375,1.860718 13.846375,0.803589zm251.762207,-6.138672c5.229309,-1.54187 6.937866,-2.864624 3.690857,-2.864624c-2.330627,0 -9.766052,-3.283813 -16.790894,-7.411865c-5.046875,-2.964722 -6.945984,-3.608887 -11.880737,-4.027832c-5.420105,-0.459839 -6.22876,-0.325317 -10.466797,1.779297c-2.525391,1.254028 -4.590698,2.573853 -4.590698,2.933472c0,0.362793 2.936035,2.514404 6.518921,4.784912c10.00238,6.332764 22.326904,8.099609 33.519348,4.806641zm-285.252411,0.553467c0,-0.15332 -1.256622,-1.816895 -2.795044,-3.699707c-1.538513,-1.882568 -3.848297,-6.151367 -5.129639,-9.484985c-2.044556,-5.303955 -2.811768,-6.286011 -6.116791,-7.821411c-3.159821,-1.463623 -4.797882,-1.704346 -9.968994,-1.457397c-3.404694,0.162598 -6.427734,0.459717 -6.718018,0.65686c-0.767151,0.525269 3.002258,8.646973 5.61496,12.108765c3.052063,4.040649 7.572113,6.805054 13.875336,8.487549c4.698608,1.257202 11.23819,1.957642 11.23819,1.210327zm-30.243286,-5.672974c0,-0.425293 -0.808716,-1.838867 -1.795685,-3.139771c-0.987091,-1.301025 -2.915131,-5.153931 -4.287903,-8.5625c-3.433563,-8.515625 -7.443695,-11.173828 -16.819702,-11.1521c-7.062225,0.015625 -8.016113,0.697388 -6.38208,4.547119c4.167633,9.822876 12.075775,16.108765 22.737457,18.075806c6.265808,1.153931 6.547913,1.166382 6.547913,0.231445zm171.216949,-1.788818c5.61908,-1.385498 11.051575,-1.394897 16.703674,-0.03125c3.674133,0.888062 5.00531,0.922485 6.888,0.190674c6.440186,-2.508057 14.77948,-2.576782 22.729126,-0.1875c1.281555,0.384644 2.882202,0.243896 4.321045,-0.381592c6.021362,-2.608154 9.193665,-3.274292 15.791321,-3.308716c4.781494,-0.021851 7.908264,-0.440918 9.807495,-1.310303c5.270752,-2.414307 13.63092,-3.655762 19.175232,-2.845825c3.86084,0.562866 5.415894,0.506592 6.659973,-0.237671c4.358276,-2.608276 11.238037,-4.259399 16.347107,-3.921631c4.743958,0.309448 5.440552,0.137573 8.720825,-2.17981c4.217407,-2.983398 11.325195,-5.291382 16.865356,-5.482056c2.940308,-0.103271 5.10907,-0.860107 8.302246,-2.895874c2.376099,-1.519897 6.265869,-3.446411 8.64209,-4.284424c3.114258,-1.097656 3.698975,-1.532471 2.102417,-1.557373c-1.219177,-0.015625 -6.228577,-1.3573 -11.13031,-2.980347c-11.225586,-3.712158 -13.112305,-3.93103 -18.184143,-2.101563c-3.827393,1.382202 -5.502747,1.457397 -24.101624,1.06958c-26.096497,-0.541016 -48.572754,-1.591797 -74.532166,-3.483765c-25.731567,-1.876465 -44.467102,-2.223633 -73.45813,-1.369873c-43.293701,1.276001 -50.305908,1.497925 -56.712891,1.788818c-27.75943,1.266602 -49.758667,1.673218 -58.774048,1.091431c-2.139709,-0.137573 -4.246399,0.434814 -6.610138,1.795166c-5.374329,3.092773 -9.106415,4.15918 -18.557373,5.294434c-4.802063,0.578613 -8.919952,1.178955 -9.14801,1.335327c-0.2323,0.156372 1.173676,0.734863 3.118591,1.288452c1.944855,0.550537 5.336914,2.110962 7.534668,3.471436c3.549957,2.192139 4.391602,2.395386 7.568268,1.83252c7.223785,-1.282227 15.330933,0 21.372925,3.377441c2.662415,1.488525 5.337097,2.586304 5.942657,2.442505c0.605438,-0.143799 4.337524,-0.253418 8.289581,-0.247192c7.091248,0.012573 10.060364,0.744385 15.343445,3.787231c1.513702,0.872437 4.553406,1.153931 12.444946,1.153931c10.022949,0 10.628601,0.093872 15.098755,2.339233c4.462158,2.24231 4.806396,2.29541 8.314575,1.294678c6.747009,-1.929688 16.284851,-0.866211 22.243896,2.476929c1.497131,0.838013 2.409424,0.812988 5.801575,-0.156494c5.531921,-1.579224 11.557373,-1.44165 17.844116,0.406616c4.420471,1.300903 5.863708,1.422852 8.733276,0.741211c5.963318,-1.422974 13.983337,-1.010132 19.332947,0.994385c2.666443,0.997681 4.847656,1.823242 4.847656,1.835693c0,0.009399 1.940674,-0.459717 4.321045,-1.044434l0,0zm171.134094,-0.59729c3.222046,-0.900635 6.025452,-1.98584 6.224426,-2.408081c0.203186,-0.422119 -1.712585,-1.147705 -4.25061,-1.61377c-4.308533,-0.784912 -16.770081,-6.564087 -20.120544,-9.325439c-2.931885,-2.41748 -13.809387,-1.310547 -19.25,1.963867c-2.123169,1.279053 -2.210266,1.591797 -0.850098,3.008545c2.334717,2.439209 11.760559,7.077026 17.504028,8.609375c6.863098,1.835693 13.61438,1.760742 20.742798,-0.234497l0,0zm-373.556488,-6.836304c-1.239868,-1.435425 -3.446014,-5.422852 -4.90155,-8.862793c-1.459778,-3.439941 -2.911072,-6.539185 -3.222107,-6.886475c-0.501801,-0.553345 -5.196075,-0.256348 -14.684204,0.922729c-1.484558,0.18457 -3.284363,0.359619 -3.993469,0.390991c-0.991119,0.040649 -1.007721,0.616089 -0.078766,2.436157c4.582336,8.994019 13.966797,14.344727 25.511719,14.545044l3.620239,0.065796l-2.251862,-2.61145zm400.453278,-1.970215c5.270752,-1.70752 5.067444,-2.026611 -2.508972,-3.896606c-5.552551,-1.369751 -13.394409,-5.163208 -17.375427,-8.399902c-1.812195,-1.473022 -3.209656,-1.820068 -7.153381,-1.779541c-5.038574,0.050171 -10.255371,1.460571 -12.62323,3.411865c-1.828735,1.507446 0.377502,3.727905 7.281921,7.330566c10.417175,5.432007 22.181702,6.645508 32.379089,3.333618zm-581.286819,0.087646c9.255829,-1.498047 22.745667,-3.280518 41.361099,-5.466553c5.050934,-0.594238 13.104126,-2.060791 17.897919,-3.261841c7.746552,-1.938843 16.595978,-3.383667 25.598816,-4.177979c8.774841,-0.775635 20.174683,-1.885864 22.463745,-2.189209c5.390991,-0.709839 48.473022,-3.683838 64.206421,-4.431396c11.918121,-0.569214 14.646881,-1.01001 32.669159,-5.269409c16.355347,-3.865356 19.573273,-5.635376 22.422302,-12.340332c0.920532,-2.17041 2.317932,-4.547119 3.105896,-5.281982c1.679474,-1.57312 3.914795,-0.906982 3.914795,1.166382c0,2.458252 4.134399,9.650879 6.174683,10.745483c1.239838,0.666016 3.466797,0.906982 6.249237,0.672363c2.376282,-0.200073 19.146332,-0.509644 37.268311,-0.691162c18.121918,-0.18457 34.891998,-0.666016 37.268097,-1.072632c10.740417,-1.845093 36.65033,-2.492554 59.95166,-1.498047c15.463806,0.659912 18.055603,0.697388 29.16925,0.440918c6.655823,-0.153198 11.897522,0.159546 28.082703,1.673096c3.865051,0.362793 21.257141,0.741211 38.653442,0.847534c37.438049,0.222168 34.93335,0.822632 37.462952,-8.968994c0.891602,-3.449585 1.629761,-6.689453 1.642151,-7.195923c0.012329,-0.509888 0.754761,-0.922607 1.654541,-0.922607c2.430176,0 5.751892,4.221802 7.157532,9.09729c2.459106,8.525146 5.689636,10.032471 31.860596,14.864136c15.584106,2.877075 20.290833,3.439941 31.184753,3.737061c4.155029,0.115723 9.749329,0.403442 12.419983,0.644165c2.674683,0.240845 8.019897,0.613159 11.884949,0.82251c3.860657,0.212646 8.965515,0.544312 11.341797,0.741211c2.37616,0.193848 7.236328,0.515991 10.802612,0.71936c3.562256,0.199951 10.126648,0.69104 14.580505,1.088135c4.457886,0.394043 10.533142,0.919556 13.506409,1.166626c2.969177,0.243896 6.858887,0.581543 8.64209,0.75354c20.14978,1.920166 27.191162,2.786499 33.03833,4.065552c9.753479,2.129761 18.710815,3.458862 27.452454,4.068604c4.159363,0.287842 8.534363,0.672363 9.720337,0.847412c3.081238,0.456787 6.087585,0.784912 18.905823,2.051514c6.236816,0.619263 15.194275,1.629395 19.896606,2.251831c4.706848,0.619141 9.994019,1.297729 11.748108,1.510498c6.697388,0.806763 14.771362,-2.786377 16.314087,-7.261719c1.2771,-3.705811 6.286743,-10.157471 9.03186,-11.633545c2.027954,-1.091309 3.670044,-1.341553 6.655762,-1.016235c3.529175,0.387573 4.11377,0.21875 5.266602,-1.516846c1.758301,-2.639404 1.608887,-13.903931 -0.302856,-22.938721c-0.862305,-4.062378 -1.583984,-8.74707 -1.600586,-10.404541c-0.045532,-3.809082 -1.069824,-4.525269 -3.421143,-2.395508c-1.521973,1.382202 -2.931885,1.688721 -8.015991,1.741943c-5.527832,0.056274 -6.498291,0.312622 -9.268433,2.432861c-3.943604,3.017944 -3.889526,3.587036 0.414795,4.225098c1.932495,0.284668 5.428345,1.182129 7.775513,1.992065l4.259033,1.476196l-3.085449,1.107056c-3.417236,1.222778 -4.785645,1.028809 -16.239502,-2.314209c-5.411499,-1.576172 -8.264465,-1.901489 -17.284058,-1.967163l-10.802673,-0.078247l4.320801,-1.397705c2.687378,-0.869507 6.738953,-1.404175 10.71167,-1.416748c3.516479,-0.012451 6.112549,-0.212769 5.76825,-0.447266c-0.344116,-0.237549 1.103271,-2.920776 3.218018,-5.969971c3.794434,-5.460327 3.82373,-5.57605 2.069275,-8.093384c-4.557312,-6.532959 0.364929,-12.721924 10.325745,-12.978394c6.921265,-0.178223 14.808838,4.009277 17.342529,9.206787c1.185913,2.442505 2.160522,3.167969 4.876709,3.649414c2.065063,0.365967 5.079956,1.973389 7.688354,4.096802c2.36377,1.923462 6.950195,5.676025 10.197144,8.340698c4.926636,4.043579 7.128418,5.200684 13.303101,6.986328c4.068115,1.179077 11.984741,3.946655 17.591309,6.154541c27.974854,11.014404 37.363647,11.96814 41.120605,4.177979c1.696167,-3.518066 -1.144531,-12.083862 -5.573486,-16.805908c-3.64917,-3.887451 -9.566772,-6.417358 -15.090576,-6.448608c-1.559204,-0.009277 -3.441895,-0.515991 -4.179932,-1.122803c-0.920654,-0.759766 -3.379883,-1.110107 -7.787964,-1.110107c-8.044922,0 -7.941284,-1.178955 0.307007,-3.486938c7.613647,-2.129639 17.325562,-2.210938 24.760986,-0.206421c3.014771,0.813232 6.01709,1.476196 6.672485,1.476196c1.799561,0 0.294434,-6.961426 -3.558228,-16.449707c-1.828491,-4.509521 -3.54541,-9.053528 -3.815063,-10.094971c-0.269531,-1.044373 -1.161133,-3.727661 -1.982178,-5.960571c-0.958008,-2.595642 -1.754272,-10.870544 -2.206177,-22.904236c-0.389893,-10.360779 -0.758911,-19.670776 -0.825195,-20.687195c-0.062256,-1.016296 0.265259,-4.506287 0.729736,-7.755615c0.468628,-3.252441 1.045166,-11.564758 1.285767,-18.469788c0.364868,-10.498352 0.062012,-13.957153 -1.841431,-21.056213c-1.252319,-4.675232 -2.658203,-8.781433 -3.126709,-9.128479c-0.464478,-0.347229 -1.654663,0.537781 -2.645752,1.963867c-0.991089,1.429138 -2.691284,3.146057 -3.77771,3.81842c-1.663086,1.02887 -1.808105,1.651245 -0.904175,3.887329c1.194458,2.952087 0.456177,8.55304 -1.79541,13.672485c-1.638184,3.715271 -1.028687,6.704895 2.662231,13.106506c2.803345,4.866028 2.741089,5.466614 -0.709229,6.723633c-2.260132,0.822449 -2.977295,0.847473 -3.334106,0.118896c-0.248657,-0.509705 -0.862427,-0.756836 -1.356079,-0.547302c-0.497314,0.209534 -1.762207,-0.203186 -2.819702,-0.916321c-1.828857,-1.241516 -1.87439,-1.235229 -1.045166,0.178345c2.368042,4.006042 2.260132,4.321777 -1.318726,3.830933c-1.853516,-0.253357 -3.661499,-0.137634 -4.01416,0.256409c-1.360107,1.501099 -2.894653,0.572266 -5.519531,-3.349365c-1.49707,-2.235962 -2.973145,-4.06543 -3.284302,-4.06543c-0.306763,0 -0.232056,1.62616 0.165894,3.615112c0.49353,2.442444 0.319336,3.787231 -0.530884,4.146851c-2.089966,0.884949 -2.952515,-0.491028 -3.678345,-5.873108c-0.381348,-2.82074 -0.978516,-5.313232 -1.326904,-5.541565c-0.348267,-0.22522 -0.290283,1.963928 0.12854,4.863037c0.564087,3.94043 0.410522,5.419434 -0.62207,5.854187c-0.837769,0.353394 -1.807983,0.118896 -2.471558,-0.59729c-0.961914,-1.044617 -1.223145,-1.053894 -2.276611,-0.065674c-1.053223,0.981934 -1.716675,0.95697 -5.730957,-0.231384c-4.922363,-1.460571 -5.141968,-1.810669 -3.334106,-5.357117c1.87854,-3.683899 0.51001,-3.43689 -3.819214,0.681824c-3.014893,2.867737 -4.532593,3.718262 -6.344849,3.539978c-1.550903,-0.150024 -2.384521,-0.747253 -2.384521,-1.707397c0,-0.888123 0.646973,-1.419861 1.621704,-1.332275c1.418091,0.131348 4.138428,-1.973328 9.649536,-7.468018c0.854614,-0.850586 -0.850098,-0.003113 -3.77771,1.879517c-6.958618,4.468872 -9.309814,5.266479 -12.822144,4.353149c-1.526123,-0.397095 -2.770142,-1.235229 -2.770142,-1.86377c0,-0.828735 -0.696777,-1.019531 -2.558716,-0.7005c-1.841187,0.315857 -3.39624,-0.093872 -5.560913,-1.463623c-1.650391,-1.047546 -3.417236,-1.901367 -3.922852,-1.901367c-0.505981,0 -0.920776,-0.537964 -0.920776,-1.191467c0,-0.944519 0.729858,-1.097778 3.545532,-0.734985c3.184937,0.406494 4.067993,0.093872 8.662964,-3.099121c3.939575,-2.73645 5.233276,-4.225037 5.610596,-6.467285c1.575928,-9.378723 2.612671,-10.842346 10.019043,-14.188599c2.119019,-0.95697 2.376221,-1.554138 1.87439,-4.403198c-0.825073,-4.71283 1.069946,-8.621887 5.86377,-12.068176c3.719604,-2.673828 4.109619,-3.305542 3.611938,-5.848145c-0.443726,-2.248474 0.136719,-3.737122 2.724365,-7.002014c2.815918,-3.555725 3.135254,-4.490723 2.231201,-6.526611c-2.255859,-5.103882 -0.962158,-9.629028 4.105347,-14.341797c2.475586,-2.304871 2.496338,-2.442444 0.808838,-5.838684c-2.247803,-4.528381 -1.285645,-8.890869 2.815552,-12.762451c3.089478,-2.917908 3.122681,-3.049194 1.567505,-6.063904c-1.824585,-3.540161 -2.056763,-7.877625 -0.559692,-10.567078c0.568115,-1.022827 2.786499,-3.183594 4.926392,-4.806641l3.893921,-2.949097l-1.683472,-3.396301c-0.929077,-1.867004 -1.687866,-4.203003 -1.687866,-5.191284c0,-2.339294 3.027344,-6.886292 6.182983,-9.288147c2.434204,-1.851379 2.454834,-1.98584 0.779541,-5.172546c-2.989746,-5.682312 -1.716675,-10.144958 4.142822,-14.526306c2.019653,-1.513611 2.089966,-1.920044 0.829346,-4.803467c-2.289185,-5.219421 -2.098267,-6.429688 1.837036,-11.811768c3.209717,-4.384521 3.778076,-5.913818 3.740356,-10.07312c-0.028809,-3.640137 0.634766,-5.929321 2.567139,-8.872192c3.271973,-4.978516 3.359009,-9.713318 0.460327,-23.929993c-6.166382,-30.190979 -6.502441,-32.624084 -4.665283,-33.580994c1.51355,-0.79126 1.637817,-2.770752 1.0448,-16.624756c-0.820923,-19.323608 -2.487915,-36.717651 -4.026489,-42.027832c-0.634399,-2.195313 -1.389282,-4.822266 -1.679321,-5.83551c-0.846069,-2.955383 -5.034668,-6.717407 -6.892212,-6.192017c-1.920044,0.541016 -11.076538,0.434692 -15.662964,-0.184509c-3.669922,-0.497253 -7.02063,-2.251648 -7.02063,-3.677734c0,-1.000732 6.311646,-2.495605 10.566162,-2.501831c3.881592,-0.006287 9.633301,-1.932678 11.412476,-3.821594c1.372681,-1.457275 1.716797,-7.730652 2.214478,-40.510986c0.323364,-21.334412 0.887329,-40.473572 1.252441,-42.534424c0.593018,-3.358734 0.352295,-3.999847 -2.305786,-6.16391c-1.633911,-1.325989 -5.490479,-3.687073 -8.571655,-5.241333c-4.628052,-2.339233 -5.84729,-3.449463 -7.029053,-6.398499c-2.985718,-7.433594 -7.74231,-9.716461 -16.828125,-8.084106c-6.27417,1.125885 -11.238037,0.337799 -11.238037,-1.785645c0,-2.820801 3.993408,-3.67453 17.255127,-3.677704c14.841797,-0.003113 17.781982,-0.866211 21.759033,-6.389069c2.376099,-3.299316 2.633301,-4.794128 3.30896,-19.095306c0.402466,-8.534393 1.190186,-17.509766 1.746094,-19.949036c0.775269,-3.386841 0.655151,-5.128784 -0.518433,-7.386688c-1.223389,-2.348572 -1.555298,-8.872131 -1.633789,-31.770172c-0.050049,-15.846039 0.223755,-29.643738 0.617798,-30.660065c2.475708,-6.445374 3.802612,-17.259583 3.126709,-25.487488c-0.945557,-11.458405 -0.680054,-19.170319 0.937256,-26.966766c0.717407,-3.455658 1.339355,-9.653931 1.38916,-13.781952c0.082764,-7.249115 -0.028931,-7.605591 -3.2677,-10.710999c-4.685913,-4.487671 -8.919922,-5.794861 -18.793823,-5.801117c-9.711914,-0.006287 -15.787231,-1.0383 -17.2677,-2.936584c-1.525879,-1.951416 -1.459717,-2.064026 1.886963,-3.249237c2.562622,-0.906921 3.595215,-0.910065 7.294312,-0.031311c9.803223,2.332977 16.226807,0.25647 19.39917,-6.273346c1.521851,-3.136658 2.674805,-4.009155 9.222656,-6.986389c4.11792,-1.87323 8.173706,-4.156219 9.019531,-5.075592c1.343628,-1.466736 3.309204,-19.742645 3.11853,-29.008865c-0.02478,-1.219635 0.431152,-5.525909 1.011719,-9.566406c0.580688,-4.043594 1.26062,-10.326324 1.513794,-13.957123c0.252808,-3.634842 0.920288,-8.638214 1.484619,-11.120697c0.994995,-4.367554 1.330811,-8.764221 1.559082,-20.396851l0.10791,-5.541275l-6.821777,-0.221069c-6.232788,-0.202026 -6.788452,-0.354645 -6.481445,-1.772873c0.543213,-2.488083 5.544312,-4.491745 12.145996,-4.866074c4.918457,-0.279297 6.071289,-0.611725 6.618652,-1.910492c0.368896,-0.86499 2.571167,-4.11705 4.893188,-7.226532c2.326416,-3.109482 4.22583,-6.012238 4.22583,-6.450394c0,-0.43782 1.633911,-2.548111 3.628418,-4.689407c1.990723,-2.14093 4.793823,-5.388947 6.220337,-7.217484c2.881958,-3.692688 4.258911,-5.041504 16.421753,-16.10775c4.640381,-4.225311 8.289673,-7.770996 8.098877,-7.878601c-0.186523,-0.108215 -23.185425,-0.444397 -51.110352,-0.747742c-27.925293,-0.303345 -55.634766,-0.651733 -61.573242,-0.774002c-30.458862,-0.627655 -53.283508,-1.168663 -66.101685,-1.566154l-14.248657,-0.442215l-2.214417,2.489937c-1.215027,1.369781 -3.499878,5.316757 -5.075745,8.771484c-3.047913,6.691467 -4.789795,8.642281 -6.908813,7.745979c-1.239929,-0.522865 -1.15271,-2.0812 0.543335,-9.714638c0.194946,-0.880295 -0.356567,-2.293243 -1.223328,-3.140106c-1.948975,-1.90358 -6.108337,-1.970184 -25.75647,-0.41246c-20.643066,1.63681 -21.941162,1.730011 -30.78656,2.213776c-9.599976,0.52507 -24.582642,2.53688 -35.107483,4.714401c-15.057312,3.114166 -29.364197,3.846603 -73.997131,3.787201c-22.874329,-0.030396 -42.849976,-0.049133 -44.392456,-0.04129c-4.773193,0.023438 -9.782715,2.958092 -11.387451,6.669273c-0.792053,1.828491 -1.447327,4.089233 -1.455688,5.023666c-0.037231,3.662704 -4.984497,7.590881 -6.90033,5.474014c-0.290283,-0.321182 -1.281372,-3.548828 -2.210388,-7.17276c-2.488098,-9.756218 -0.920593,-9.272438 -29.845032,-9.227074c-13.340576,0.02063 -26.200256,0.052536 -28.576477,0.070053c-2.376038,0.017517 -10.640808,-0.008438 -18.362427,-0.058517c-7.725525,-0.049698 -20.120667,0.273346 -27.547729,0.718048c-19.212646,1.150536 -51.110474,0.736816 -63.157288,-0.819016c-13.141541,-1.69751 -47.523254,-4.567139 -74.030243,-6.178635c-14.646973,-0.89032 -41.742706,-2.662277 -45.371246,-2.966522c-16.367737,-1.37291 -17.010529,-1.350098 -18.955383,0.680481c-1.007721,1.052338 -2.679016,4.138336 -3.715698,6.858154c-1.032623,2.719803 -2.309753,5.03936 -2.836487,5.154106c-0.912262,0.198578 -2.098236,-1.367249 -6.357117,-8.389275c-3.12674,-5.151321 -7.348267,-7.258774 -21.066284,-10.5159c-18.889038,-4.484528 -25.582092,-5.312317 -39.967743,-4.942993c-6.834045,0.175438 -15.098877,0.854713 -18.366577,1.509865c-3.267731,0.654861 -7.671783,1.113319 -9.790771,1.018555c-2.583618,-0.115692 -4.988739,0.380592 -7.298584,1.50489c-4.449585,2.16687 -9.264191,3.150757 -15.2771,3.120987c-4.205017,-0.02063 -5.216797,0.303391 -7.891663,2.521606c-3.703156,3.073181 -11.378967,5.534042 -17.263458,5.534042c-3.74881,0 -4.86853,0.428436 -8.50946,3.256149c-4.445465,3.454086 -11.300262,5.609428 -17.839966,5.609428c-2.591797,0 -3.889709,0.449707 -4.802032,1.662476c-3.284317,4.35289 -11.797974,7.942093 -18.843536,7.942093c-3.023163,0 -4.126144,0.552902 -7.480988,3.747437c-4.151031,3.951004 -7.9496,5.462143 -16.463181,6.55043c-2.707886,0.345596 -5.295609,1.078918 -5.755905,1.629959c-2.699661,3.235489 -7.530762,6.594528 -11.105331,7.72316c-3.313492,1.046082 -4.076431,1.666565 -3.93544,3.198608c0.364883,3.941956 -0.149261,5.010254 -3.533157,7.379181c-3.230438,2.25853 -3.831726,2.398636 -8.37262,1.942352c-11.034821,-1.109863 -16.251633,-0.103195 -20.891983,4.030457c-3.520737,3.139206 -7.364868,4.966492 -13.82579,6.572037c-1.978058,0.491913 -3.027191,1.418259 -3.52066,3.109787c-0.937241,3.193604 -8.654617,8.195724 -14.493439,9.392563c-3.387924,0.693909 -4.553276,1.31311 -4.553276,2.417694c0,3.546677 -5.934204,8.284515 -12.818016,10.235992c-1.862045,0.528473 -3.379745,1.166428 -3.375587,1.422852c0.004112,0.25647 1.799713,1.294724 3.993416,2.311111c3.782005,1.754395 4.648735,1.838852 17.19722,1.654327c12.386795,-0.181412 13.39444,-0.08754 16.048431,1.47612c2.533768,1.497925 2.670624,1.820068 1.30629,3.089737c-1.671204,1.554306 -5.569275,1.791946 -13.821609,0.834976c-4.544998,-0.52536 -5.270744,-0.394028 -8.409927,1.541809c-2.367851,1.457275 -3.918777,3.383713 -4.98037,6.179535c-1.020149,2.692596 -2.55864,4.647141 -4.553337,5.794891c-7.310951,4.203049 -12.274765,7.843246 -12.855362,9.4319c-0.348297,0.944458 -0.103683,4.303162 0.534958,7.468018c0.642746,3.161682 1.683609,15.889801 2.314026,28.283295c0.630295,12.393463 1.488708,29.018188 1.911667,36.939636l0.767197,14.407501l7.290222,0.218903c5.37851,0.159485 7.290298,0.490997 7.290298,1.250885c0,0.70993 1.613068,1.107117 5.13382,1.260315c4.536697,0.200195 5.129662,0.422211 5.129662,1.926422c0,1.376007 -1.181808,2.02652 -6.224426,3.430634c-15.538483,4.318848 -14.812737,2.59256 -15.38501,36.623871c-0.451996,26.713348 -0.580589,28.161285 -2.653999,30.093903c-1.567543,1.46051 -2.47982,4.021759 -3.242867,9.109894c-1.177727,7.833832 -1.521965,21.984894 -0.622009,25.42804c0.323334,1.219666 0.870781,3.380585 1.223282,4.800446c0.348381,1.422913 1.202614,2.83017 1.890953,3.130371c0.684296,0.300293 6.838234,0.553528 13.672318,0.56604c13.435959,0.025085 17.599457,0.82251 18.159225,3.47757c0.551575,2.620697 -2.861267,3.211792 -17.309029,2.999084c-19.241646,-0.284546 -20.92942,0.888184 -19.001144,13.184692c0.941345,6.016937 4.594765,12.846985 6.867302,12.846985c1.878571,0 5.880302,3.912231 5.880302,5.751129c0,1.579193 -3.251144,2.733215 -9.915314,3.527527c-2.1978,0.259583 -4.291962,1.016449 -4.681793,1.691864c-0.734009,1.266571 -1.069931,6.536102 -2.123192,33.359009c-0.80452,20.380554 -2.471596,40.961243 -3.686615,45.398926c-1.592438,5.829285 -0.489311,7.258484 9.761787,12.668701c5.270668,2.783264 6.274254,3.721497 7.398056,6.920715c2.492249,7.108337 7.145164,9.344421 16.707909,8.030884c5.084061,-0.697388 6.323959,-0.634827 8.720871,0.437866c1.588196,0.712952 2.645676,1.795044 2.446655,2.501831c-0.588837,2.107788 -7.00824,3.017822 -18.951309,2.68634c-13.634995,-0.375244 -16.819771,0.550415 -20.655685,6.001282c-2.948425,4.193726 -4.07222,9.804077 -4.864319,24.327271c-0.310944,5.688599 -0.887444,11.173828 -1.277229,12.190186c-1.190155,3.086731 -2.152214,31.579468 -1.372566,40.633118c1.069855,12.393372 1.310371,27.010498 0.464409,27.948547c-0.738136,0.816345 -0.812798,3.924866 -0.675964,27.132507l0.078812,12.599915l6.183075,2.085938c8.96553,3.023987 17.263458,4.853577 22.015785,4.853577c5.390984,0 5.262383,0.909973 -0.373199,2.648804c-3.226273,0.994446 -7.020622,1.394775 -13.232719,1.397827c-8.045006,0.003113 -9.148117,-0.187622 -14.489258,-2.498596c-4.677727,-2.029724 -5.959068,-2.308044 -6.734596,-1.473022c-1.385101,1.494812 -1.239929,2.727051 1.845398,15.808472c3.400406,14.441956 4.229836,23.676819 2.711983,30.331665c-1.165199,5.125793 -0.961983,6.801941 2.662407,21.75354c1.882721,7.78064 1.845314,12.102661 -0.170029,19.210999c-4.238152,14.960999 -5.100716,19.489258 -5.208565,27.335632c-0.211472,16.108826 1.982315,22.341553 8.173592,23.189026c1.82045,0.24707 10.176453,0.456604 18.569794,0.462891c16.844643,0.009338 20.26593,0.347107 19.390869,1.901367c-0.845963,1.507446 -6.950172,2.398682 -20.336365,2.964661c-10.869011,0.459839 -14.874924,0.681763 -16.973244,0.938171c-1.658707,0.206421 -6.353081,4.306335 -9.376106,8.193481c-1.754211,2.251709 -4.271339,6.917664 -5.602509,10.373291c-5.718521,14.848389 -0.729813,40.748779 8.720917,45.277039c2.608391,1.250916 20.282516,1.632507 28.630211,0.622314c5.681282,-0.691101 8.10302,-0.284546 8.10302,1.351013c0,1.057007 -1.202576,1.451172 -5.672958,1.867004c-3.118439,0.28772 -6.643295,0.644226 -7.82933,0.784973c-1.190147,0.14386 -4.105446,0.447205 -6.481583,0.672424c-2.376183,0.228271 -5.536102,0.553467 -7.020691,0.725525c-1.488792,0.171814 -6.34893,0.68158 -10.802719,1.138306c-4.453743,0.453491 -8.526039,1.116455 -9.0485,1.476074c-1.725105,1.179016 -8.239876,19.495605 -8.808037,24.76825c-1.63797,15.201721 -1.472099,22.350647 0.634445,27.08551c1.144562,2.576904 2.085938,5.929321 2.090126,7.452271c0.004074,1.522949 0.364914,2.770874 0.796143,2.770874c0.435493,0 4.545021,-0.872437 9.135612,-1.938965c8.60479,-1.998535 12.09655,-1.932739 11.491058,0.218872c-0.257126,0.903809 -2.799088,1.598022 -9.417618,2.570801c-12.017685,1.766846 -14.115959,2.755005 -14.315063,6.739258c-0.45195,9.006592 2.094246,13.713135 8.662918,16.005371c9.782471,3.411987 16.380196,0.978882 23.803169,-8.778198c4.163452,-5.47583 9.728622,-9.644653 12.867844,-9.644653c2.280731,0 4.619591,-3.53064 5.7061,-8.609375c1.472137,-6.867798 2.861343,-9.047363 6.112488,-9.607056c4.250603,-0.728638 3.408791,-1.704468 26.506935,30.775635c3.611969,5.078735 8.25238,10.686157 10.313309,12.455933c3.441971,2.961792 4.064056,3.193115 7.709167,2.858521c6.108368,-0.559814 9.989792,1.028931 21.377167,8.740723c17.939468,12.15271 19.245712,12.515503 35.580444,9.869873l0,0zm-69.278061,-44.504639c-1.770767,-0.88501 -1.426544,-1.125854 3.715591,-2.586304c3.118546,-0.884888 6.303238,-1.610474 7.082962,-1.610474c3.118378,0 2.653976,-1.75769 -1.169418,-4.437744c-3.508377,-2.45813 -4.51181,-2.773804 -7.667603,-2.423584c-5.386887,0.597168 -9.587677,-0.910034 -11.773117,-4.228149c-4.515976,-6.845703 4.549149,-17.384644 16.239288,-18.885742c4.453735,-0.572266 7.058014,-0.018677 10.649155,2.257935c3.197281,2.026367 3.802719,6.182617 1.526108,10.482788c-1.161148,2.201538 -0.953827,2.945801 2.085846,7.439697c1.857773,2.74585 3.632721,5.560425 3.94368,6.257813c0.447906,0.997559 1.762497,1.244507 6.286743,1.178955c3.147415,-0.043823 7.422928,0.409546 9.504654,1.013184c3.740524,1.082153 3.661758,1.097656 -7.651031,1.538574c-9.620728,0.37854 -12.577499,0.806885 -18.66098,2.714478c-7.916428,2.477051 -11.146912,2.77417 -14.111877,1.288574zm7.543228,-16.37146c3.881454,-2.026489 8.032455,-7.24292 8.032455,-10.094849c0,-2.723999 -4.540787,-5.372803 -8.148605,-4.75354c-7.13678,1.222778 -13.626633,6.645508 -13.784271,11.508423c-0.186615,5.89502 6.104279,7.405518 13.900421,3.339966zm910.425827,-848.368164c-4.893188,-2.712021 -6.012939,-6.957306 -3.093384,-11.736145c1.563232,-2.559692 1.505249,-2.794556 -1.62146,-6.531677c-1.783325,-2.132202 -3.34668,-4.718155 -3.470947,-5.746735c-0.219971,-1.801285 -0.530884,-1.879181 -8.609009,-2.129974c-6.158203,-0.191391 -8.88269,-0.602036 -10.2677,-1.54863c-1.791504,-1.225281 -1.410034,-1.291595 7.800293,-1.349442c12.026001,-0.075378 14.912231,-0.387787 21.02478,-2.278244c7.866577,-2.431488 10.143188,-2.723557 13.572754,-1.740356l3.172241,0.910065l-5.942383,1.886047c-3.2677,1.037018 -7.070435,2.173157 -8.447266,2.524384c-2.479858,0.630783 -2.454956,0.675461 1.98645,3.683319c4.101196,2.777649 4.868286,3.010025 8.778687,2.651306c8.882935,-0.814957 13.087891,3.430664 10.757202,10.863617c-1.256348,4.000137 -6.514771,9.100769 -11.24231,10.898026c-3.541138,1.346603 -11.690063,1.145508 -14.397949,-0.35556l0,0zm16.338745,-5.091904c4.619751,-3.616074 6.581055,-8.394882 4.590698,-11.186005c-1.194336,-1.672806 -2.077637,-1.976791 -5.519531,-1.901398c-7.169922,0.156357 -16.981567,8.063416 -15.384888,12.403809c1.89502,5.172852 10.13501,5.518127 16.313721,0.683594zm-715.646149,909.726547c0,-0.13147 -0.771393,-1.785645 -1.712616,-3.680908l-1.716858,-3.440063l-4.495331,0.425293c-2.475616,0.234619 -5.469696,0.516113 -6.659882,0.628662c-1.186035,0.112427 -3.130951,0.250122 -4.320953,0.303345c-1.907684,0.087524 -1.779114,0.30957 1.082214,1.913818c3.740509,2.095337 10.557983,3.943604 14.854187,4.028076c1.633942,0.031128 2.969238,-0.046997 2.969238,-0.178223l0,0zm673.812408,-1.2229c1.978149,-0.759888 33.709961,-9.638306 45.624146,-12.765625c9.525269,-2.501709 17.752808,-4.059082 24.740479,-4.681519l5.834595,-0.522217l-23.795044,-8.002808c-22.053101,-7.417969 -24.238525,-8.331177 -29.890625,-12.505981c-3.35498,-2.480103 -7.095337,-5.841919 -8.314575,-7.474487c-2.666504,-3.574341 -3.686768,-3.292847 -2.206177,0.609985c0.597168,1.563599 1.302246,3.84021 1.567627,5.059814c0.265381,1.219727 1.069702,3.687134 1.783081,5.485474c1.749878,4.403198 2.226929,14.125977 0.87085,17.775513c-1.372681,3.702759 -7.891602,8.840698 -14.613647,11.524048c-5.755859,2.298584 -7.841919,3.856079 -7.053955,5.263306c0.638672,1.135254 2.857178,1.232178 5.453247,0.234497zm-218.222168,-2.576782c3.118408,-0.994507 5.668823,-2.126587 5.668823,-2.520508c0,-1.551147 -9.454834,-2.855469 -24.843994,-3.421387c-5.050964,-0.18457 -11.370789,-0.516113 -14.045593,-0.738159l-4.860229,-0.400146l5.026062,3.21167c8.953308,5.719849 22.318542,7.286621 33.054932,3.86853zm-673.194489,-3.005371c-1.152786,-0.597412 -2.612549,-1.075806 -3.238693,-1.060181c-0.630325,0.012451 -0.203156,0.509766 0.953781,1.107056c1.152893,0.597412 2.608444,1.072632 3.238708,1.060059c0.630386,-0.012451 0.199097,-0.509644 -0.953796,-1.106934l0,0zm-5.565094,-2.74585c-0.422989,-0.509766 -1.44313,-1.463501 -2.264175,-2.123413c-0.825241,-0.659912 -2.890427,-3.984131 -4.586502,-7.386597c-1.70018,-3.40564 -5.142166,-9.682251 -7.651062,-13.947876c-2.513016,-4.268677 -4.996948,-8.800049 -5.527756,-10.072876c-1.015961,-2.436279 -4.810379,-6.182861 -6.265923,-6.182861c-0.468658,0 -1.683693,1.91394 -2.699654,4.250122c-3.218002,7.411621 -5.295631,10.019775 -12.494576,15.698975c-5.959076,4.700317 -11.8311,9.622803 -16.616638,13.925903c-0.916428,0.825562 -0.468567,0.82251 2.624954,-0.021851c7.199074,-1.960815 31.852272,0.709839 48.02108,5.200684c6.332321,1.760742 8.538467,1.954468 7.460251,0.65979zm979.952698,-8.59375c-0.800293,-0.888062 -4.938721,-1.576172 -4.938721,-0.819458c0,0.666138 1.90332,1.319824 4.11377,1.410522c0.775269,0.034302 1.14856,-0.234497 0.824951,-0.591064l0,0zm-86.035522,-36.020142c2.550171,-2.220459 2.74939,-3.730957 1.00769,-7.712158c-1.604858,-3.661987 -7.116211,-7.273926 -11.905762,-7.805542c-2.981689,-0.331543 -4.403931,-0.046997 -6.792725,1.360229c-2.546143,1.497925 -2.90271,2.139038 -2.280762,4.081055c1.240112,3.859253 6.7677,8.806519 11.719238,10.479736c5.693726,1.929443 5.560913,1.935669 8.252319,-0.40332zm66.101563,-98.291016c-1.273193,-1.498047 -1.579956,-1.019653 -0.534912,0.838013c0.368896,0.662964 0.89978,1.044556 1.177734,0.856934c0.27771,-0.190857 -0.008545,-0.953857 -0.642822,-1.694946zm-41.506348,-4.17804c2.724609,-1.757568 4.76062,-3.558899 4.52832,-3.996765c-0.2323,-0.440918 -3.238647,0.997559 -6.680664,3.196045c-3.736328,2.386047 -5.560791,3.999817 -4.528442,3.999817c0.953857,0 3.960327,-1.438538 6.680786,-3.199097l0,0zm-4.047363,-6.611267c-0.265381,-0.140747 -2.405273,1.260376 -4.748169,3.114868l-4.258789,3.371216l4.748047,-3.114746c2.608398,-1.713867 4.52832,-3.230591 4.258911,-3.371338zm19.971436,-5.704102c0.543335,-5.472839 0.418701,-6.714355 -0.555664,-5.635437c-1.621338,1.788818 -2.786743,14.432434 -1.23584,13.391052c0.605469,-0.406494 1.414185,-3.896667 1.791504,-7.755615zm-13.095947,-1.110229l0.597168,-5.169434l-1.496948,4.800415c-1.774902,5.679138 -2.019531,8.343567 -0.618042,6.648682c0.506104,-0.609924 1.186157,-3.433838 1.517822,-6.279663l0,0zm25.968018,-2.583191c0.489136,-1.820068 0.381226,-2.257874 -0.369263,-1.479126c-0.580444,0.609802 -1.069824,1.910706 -1.078125,2.892639c-0.02063,2.373657 0.592896,1.770142 1.447388,-1.413513zm-24.686523,-6.651733c1.074097,-0.81311 1.712524,-1.476135 1.414063,-1.476135c-0.298584,0 -1.422363,0.663025 -2.49646,1.476135c-1.074097,0.81311 -1.712646,1.479187 -1.414185,1.479187c0.298584,0 1.418457,-0.666077 2.496582,-1.479187zm36.932251,-5.779236c5.017822,-1.767029 9.492188,-5.322754 10.632813,-8.450012c0.410278,-1.122681 0.410278,-3.568176 0,-5.435242l-0.742554,-3.393127l-6.129028,0.503601c-9.936035,0.822327 -23.77832,3.09906 -26.652222,4.387512c-4.565552,2.045227 -6.33252,4.631653 -6.162354,9.031616c0.083008,2.217346 0.477051,4.390747 0.875122,4.828552c0.472778,0.522217 4.648804,0.678711 12.183594,0.459839c8.953369,-0.262756 12.461304,-0.684998 15.994629,-1.932739l0,0zm-13.701416,-19.358032c2.073364,-0.415955 7.418823,-1.103943 11.876709,-1.529297c9.264038,-0.884827 11.793701,-1.788696 15.015991,-5.350708c2.425903,-2.689514 4.968018,-10.282593 4.01001,-11.990173c-0.804565,-1.432251 -17.516479,3.402588 -26.328735,7.615051c-7.203125,3.443237 -11.706543,7.977844 -10.504028,10.576538c0.775513,1.66687 0.924927,1.682434 5.930054,0.678589l0,0zm4.312744,-16.946838c1.484741,-0.666016 7.738159,-2.676941 13.896362,-4.468933c6.199585,-1.801208 11.818481,-3.927795 12.585815,-4.762756c1.832886,-1.985901 3.897949,-8.906677 3.089233,-10.348328c-0.829224,-1.482422 -3.006348,-1.441711 -4.864136,0.087585c-0.812988,0.672363 -6.74707,2.97406 -13.187134,5.113159c-6.436035,2.14209 -12.61499,4.459534 -13.730469,5.150574c-2.857178,1.766968 -4.607056,5.888794 -3.78186,8.900391c0.729858,2.658264 0.779541,2.661377 5.992188,0.328308zm11.855957,-19.645691c5.577637,-1.976379 8.534424,-3.63385 11.905762,-6.68927c4.810425,-4.359436 7.564087,-8.209167 7.564087,-10.579712c0,-1.366516 -0.514282,-1.291626 -7.290283,1.038391c-4.01001,1.379089 -9.189697,2.742676 -11.50769,3.027222c-5.312134,0.656677 -12.137939,4.775269 -13.498169,8.143433c-1.414063,3.49939 0.352539,7.68689 3.23877,7.68689c1.190063,0 5.50293,-1.182129 9.587524,-2.626953l0,0zm-3.205444,-17.362793c2.073364,-0.428345 4.52832,-0.894287 5.453247,-1.038147c7.903931,-1.216675 17.446045,-6.364136 20.609985,-11.11145c1.082275,-1.626099 1.978149,-4.50946 1.990356,-6.410889l0.025024,-3.45874l-4.590454,1.726257c-2.525635,0.950623 -7.609741,2.298523 -11.300537,2.992798c-10.263428,1.935791 -18.67749,7.552368 -18.67749,12.468567c0,1.407227 1.957153,5.610352 2.612549,5.610352c0.058105,0 1.799683,-0.350342 3.877319,-0.778748zm14.932739,-22.857361c8.331177,-2.198425 12.258545,-4.315613 17.234619,-9.294434c2.193848,-2.198486 4.528442,-9.9198 2.994141,-9.9198c-0.414673,0 -2.786621,0.803772 -5.27063,1.788879c-2.484131,0.982056 -8.157104,2.520569 -12.614868,3.421326c-8.944946,1.804443 -12.138184,3.383667 -15.264893,7.552368c-1.762329,2.351807 -1.907349,3.246155 -0.932861,5.726135c1.430664,3.630798 2.599976,3.693359 13.854492,0.725525l0,0zm-0.356445,-18.194641c6.933472,-1.132019 14.269531,-3.943542 18.52832,-7.105225c5.710205,-4.237549 6.572876,-5.397705 7.472656,-10.041809l0.742188,-3.821472l-5.125366,1.957642c-2.819824,1.078918 -9.052734,2.739563 -13.850464,3.693359c-9.674927,1.926331 -14.008423,4.159363 -15.974121,8.23407c-1.583984,3.28064 0.551636,8.503174 3.251343,7.959106c0.945435,-0.190796 3.172241,-0.584839 4.955444,-0.875671zm7.095337,-19.933472c10.110229,-2.041992 15.326782,-4.47821 20.415039,-9.52887c2.654175,-2.639465 5.4823,-9.976135 3.844116,-9.976135c-0.352417,0 -2.931763,0.791321 -5.734985,1.760803c-2.803345,0.966309 -8.981934,2.483093 -13.726318,3.371216c-9.53772,1.77948 -11.876587,2.867737 -14.14502,6.579895c-1.803833,2.955261 -1.907593,4.506348 -0.476929,7.080078c1.23584,2.223572 2.040283,2.28302 9.824097,0.713013l0,0zm6.178955,-19.454834c8.310303,-1.813782 12.225098,-3.208618 16.902466,-6.016907c4.022583,-2.41748 8.169434,-8.790894 8.169434,-12.559143l0,-2.22052l-4.590576,1.832642c-2.525513,1.010071 -8.480347,2.554932 -13.232666,3.433777c-9.629028,1.782532 -12.880249,3.37738 -15.737427,7.724365c-1.638184,2.498657 -1.749878,3.436951 -0.709106,6.095154c0.676025,1.726257 1.550903,3.139832 1.944946,3.139832c0.393677,0 3.657593,-0.641174 7.25293,-1.429199zm7.808472,-20.415039c13.908691,-3.005371 20.767578,-8.227966 22.268921,-16.965576l0.721558,-4.196899l-5.291504,2.567627c-6.286743,3.04895 -10.694946,4.447021 -19.063232,6.044983c-6.51062,1.244629 -8.708496,2.698853 -10.487549,6.936401c-0.974487,2.323486 0.572266,7.508667 2.235107,7.508667c0.464478,0 4.793945,-0.850647 9.616699,-1.895203zm1.182129,-18.078979c14.766724,-3.402527 22.218872,-8.991028 23.106079,-17.331482l0.427246,-4.009155l-5.403442,2.655029c-2.973267,1.46051 -9.857178,3.69342 -15.297729,4.9599c-8.327026,1.938904 -10.292603,2.708313 -12.424072,4.875488c-1.878418,1.904541 -2.396851,3.243042 -2.003052,5.169373c1.190186,5.810608 1.679565,5.963867 11.594971,3.680847l0,0zm-14.717407,-16.499512c-2.380371,-3.903015 -2.015503,-8.462646 0.986816,-12.296692c1.758423,-2.251648 2.289063,-3.699524 1.654663,-4.512573c-0.514282,-0.659851 -1.455688,-2.783325 -2.089966,-4.716125c-1.418213,-4.325012 -0.21167,-7.220825 4.926392,-11.824219c3.620239,-3.243042 3.636841,-3.289917 2.061035,-6.342163c-2.641602,-5.125671 -1.49707,-10.326355 3.031372,-13.750793l2.1521,-1.629333l-2.803223,-5.175659c-2.604126,-4.800354 -2.703735,-5.41333 -1.364136,-8.453064c0.791992,-1.801392 2.185425,-4.00293 3.093506,-4.888c1.509521,-1.476074 1.418091,-1.995239 -1.049316,-6.154602c-3.367188,-5.663452 -3.400513,-8.556213 -0.144897,-12.950073c2.546143,-3.440002 2.550171,-3.455627 0.522461,-6.270203c-2.840576,-3.946594 -2.737183,-9.009766 0.273682,-13.128357l2.458984,-3.368164l-2.716187,-2.736328c-5.179443,-5.222595 -5.482178,-13.175415 -0.646973,-17.159485c1.078247,-0.888245 0.758911,-1.89209 -1.691895,-5.31012c-3.931274,-5.494751 -4.238159,-11.067566 -0.846069,-15.477112c1.422607,-1.851318 1.96167,-3.29303 1.331299,-3.558838c-1.928223,-0.81311 -5.129639,-5.873047 -5.876099,-9.284973c-0.522583,-2.379822 -0.2323,-4.190613 0.99939,-6.204529c1.700195,-2.780212 1.675293,-2.886536 -0.928955,-4.747284c-3.723999,-2.661316 -6.212036,-9.494507 -4.76062,-13.087769c0.609619,-1.516785 1.783081,-3.458801 2.604248,-4.315613c1.347778,-1.404205 1.177856,-1.823242 -1.691895,-4.206238c-1.754272,-1.454224 -3.798706,-4.196838 -4.536743,-6.095154c-1.173584,-2.989624 -1.094727,-3.943481 0.593018,-7.192749l1.944824,-3.743347l-2.654053,-1.948364c-1.463867,-1.072662 -3.201294,-2.676941 -3.869019,-3.562012c-1.480347,-1.970215 -1.600708,-9.441284 -0.182495,-11.251953c0.787964,-1.007019 0.298462,-1.898346 -2.118896,-3.82782c-1.72937,-1.385437 -3.188965,-2.182892 -3.243042,-1.779419c-0.049683,0.406494 -0.244507,2.401703 -0.431152,4.434479c-0.352417,3.896576 -1.563599,7.496094 -4.968018,14.776489c-3.549683,7.589935 -6.701416,14.735809 -6.925415,15.705292c-0.120239,0.512878 -0.796021,1.329102 -1.501221,1.810669c-1.965576,1.344788 -1.695923,1.735687 4.22583,6.207672c9.446655,7.136566 8.833008,3.030426 8.957397,59.944153c0.082764,37.186707 0.435303,50.424561 1.343384,50.424561c0.676025,0 2.36377,0.628601 3.748901,1.394775l2.512939,1.391663l0.252808,23.911316c0.141235,13.150269 0.319458,24.408569 0.394165,25.018433c0.078857,0.609741 1.074097,6.498474 2.210083,13.087708c1.140503,6.58606 2.073608,14.607605 2.073608,17.822632c0,3.214722 0.307007,6.895569 0.684204,8.180969c0.642822,2.20459 0.763306,2.254761 2.148193,0.900513c1.23999,-1.210205 1.21936,-1.83252 -0.14502,-4.062195l0,0zm15.749756,-1.644958c6.249268,-1.254089 11.814453,-3.261841 16.002808,-5.773132c3.993408,-2.395508 7.667603,-8.412354 7.679932,-12.581116l0.008545,-3.646362l-2.96936,1.945129c-1.633911,1.066406 -5.888428,2.811462 -9.450684,3.874756c-3.566406,1.066406 -7.327637,2.248535 -8.360107,2.630005c-1.032593,0.381531 -2.745117,0.691162 -3.811035,0.691162c-3.081055,0 -6.63501,2.098328 -8.372437,4.944275c-1.87439,3.071045 -1.994873,4.603333 -0.551636,7.199097c1.235596,2.223511 2.040283,2.279846 9.823975,0.716187zm0.468628,-18.2948c7.675781,-1.404175 13.435913,-3.605713 17.972412,-6.876892c5.565308,-4.009277 7.410645,-6.920776 7.410645,-11.699341l0,-4.137329l-3.508423,2.26416c-3.483032,2.245361 -6.622314,3.39624 -18.096924,6.642395c-8.990356,2.54248 -9.035889,2.564392 -11.229614,5.297607c-1.605103,2.004578 -1.882935,3.302429 -1.281494,6.032654c0.841797,3.84021 1.00354,3.887207 8.733398,2.476746zm7.198975,-19.592468c5.403442,-1.60437 11.329102,-4.703491 15.554932,-8.140381c3.404541,-2.7677 6.129272,-9.682129 5.196045,-13.178467l-0.638428,-2.389282l-5.557007,3.21167c-3.168213,1.832581 -8.102905,3.784119 -11.495239,4.540955c-6.672363,1.491638 -11.121826,4.300049 -13.004517,8.19342c-1.045044,2.167297 -0.945679,3.186768 0.559814,5.88562c2.052734,3.677734 2.807373,3.827881 9.384399,1.876465zm2.1604,-20.674561c6.162354,-1.813904 15.928345,-7.890259 17.918945,-11.1521c1.882568,-3.080383 2.890137,-9.015991 1.957153,-11.555298l-0.663574,-1.81073l-3.777588,2.508057c-3.334229,2.214172 -6.373901,3.43689 -16.587524,6.67688c-3.811157,1.210205 -8.737427,5.735413 -9.405151,8.637573c-0.680176,2.949036 2.090088,8.071533 4.362427,8.071533c0.833496,0 3.624268,-0.619263 6.195313,-1.375916zm1.414185,-21.181335c6.788452,-2.198486 14.269531,-7.036377 16.521484,-10.689026c1.799438,-2.917786 2.960571,-9.776001 1.957031,-11.561646c-0.518311,-0.92572 -1.575684,-0.469116 -4.914063,2.123413c-3.760986,2.924011 -18.001709,8.700134 -21.447754,8.700134c-1.322754,0 -4.511597,4.584656 -4.511597,6.482788c0,2.448792 3.168091,6.814514 4.942871,6.814514c0.920654,0 4.275513,-0.841309 7.452026,-1.870178zm0.029053,-18.857605c5.133789,-2.142212 14.327637,-8.934692 16.1521,-11.940002c1.866089,-3.067871 2.231079,-10.301331 0.626221,-12.352844c-0.941406,-1.203979 -1.554932,-1.010071 -6.212158,1.948364c-2.840698,1.807495 -7.472534,4.096741 -10.296753,5.088074c-9.288818,3.268005 -14.219604,11.708618 -10.055908,17.212646c1.977783,2.617554 3.586914,2.626953 9.786499,0.043762zm6.792725,-26.813477c8.347412,-5.585327 10.624268,-9.669617 8.882446,-15.949158c-0.601318,-2.167236 -1.094727,-4.068665 -1.094727,-4.21875c0,-0.153198 -2.691528,1.219666 -5.979858,3.055359c-3.292725,1.832581 -7.78772,3.959167 -9.994141,4.731628c-4.909668,1.713745 -6.80481,3.121033 -10.329712,7.680664c-2.579346,3.336731 -2.64978,3.724548 -1.268921,6.867493c2.297363,5.21637 3.089355,5.57605 8.434692,3.849731c2.504639,-0.809998 7.61377,-3.518188 11.35022,-6.016968l0,0zm-12.445068,-16.099304c14.928833,-5.20697 22.658691,-14.629517 19.204346,-23.407837l-1.190063,-3.024048l-5.10083,3.346191c-2.807373,1.838806 -7.680054,4.35321 -10.831543,5.585327c-5.813965,2.276672 -10.304932,6.001221 -11.590576,9.622681c-0.941406,2.645752 2.322388,9.45697 4.532593,9.45697c0.248779,0 2.488037,-0.7099 4.976074,-1.579285l0,0zm0.248901,-22.10376c5.137939,-2.142151 14.327637,-8.934631 16.15625,-11.940063c2.077759,-3.41806 2.102539,-10.676544 0.045654,-13.137726c-0.845947,-1.016479 -1.559082,-1.457336 -1.579834,-0.982056c-0.078979,1.770142 -10.802856,8.844055 -15.866089,10.467102c-9.492188,3.039764 -13.095825,9.5383 -8.592285,15.489532c2.036133,2.683228 3.607666,2.702026 9.836304,0.10321zm4.238281,-24.371063c6.381958,-4.831665 8.550781,-8.868988 7.932739,-14.770264c-0.286011,-2.717529 -0.866699,-5.328857 -1.293579,-5.801117c-0.497803,-0.550415 -2.475952,0.541077 -5.515625,3.039764c-2.608276,2.142181 -7.650757,5.059937 -11.200562,6.482849c-4.698486,1.879547 -7.041504,3.393219 -8.59668,5.541626c-3.329712,4.609619 -3.362915,6.930115 -0.149048,10.539001l2.152222,2.414246l6.282471,-2.17041c3.454468,-1.191467 8.12793,-3.565063 10.388062,-5.275696l0,0zm-1072.544777,-12.477905l0.37326,-3.743378l-4.258904,0c-2.342979,0 -4.242218,0.250153 -4.221588,0.553528c0.087189,1.254059 6.643402,7.649384 7.360817,7.180298c0.207352,-0.134491 0.543289,-1.929565 0.746414,-3.990448l0,0zm1059.60215,-2.974091c7.962036,-3.74649 14.327515,-9.194183 15.642212,-13.381714c1.467651,-4.681519 1.442993,-5.510315 -0.253052,-9.391266l-1.38501,-3.167969l-5.668945,4.778534c-3.114258,2.626953 -8.322632,5.985657 -11.573853,7.458618c-6.539795,2.967804 -9.595947,6.564209 -8.397217,9.872864c0.8125,2.226593 4.611206,6.016937 6.03772,6.016937c0.522461,0 3.039551,-0.985107 5.598145,-2.186005zm-1059.104477,-6.28894c1.484581,-0.587982 3.831726,-1.413574 5.216782,-1.84201c1.385056,-0.425293 2.34716,-1.022583 2.135674,-1.322845c-1.691963,-2.420563 -4.93483,-5.403961 -6.253502,-5.754242c-2.268394,-0.597321 -26.10471,-2.689453 -26.627235,-2.33609c-1.036732,0.7099 3.309227,6.073181 7.344154,9.06604c4.126167,3.061615 4.777214,3.274292 9.948372,3.264923c3.043846,-0.006226 6.746971,-0.490997 8.235756,-1.075775l0,0zm1059.668564,-16.105652c3.578735,-2.529938 7.286011,-5.716675 8.235718,-7.080139c2.048462,-2.930359 2.338867,-11.277069 0.505737,-14.476318l-1.248047,-2.176605l-1.837036,1.901428c-3.035522,3.146057 -10.823486,8.628204 -15.658691,11.020599c-5.631348,2.78952 -7.153442,4.603363 -7.203125,8.584442c-0.029175,2.448639 0.671753,3.668335 3.300903,5.716675c4.059814,3.161682 4.748291,2.989685 13.904541,-3.490082l0,0zm-1058.590401,0.162659c0,-4.221863 -2.799126,-6.542328 -11.146866,-9.234924c-9.098251,-2.939697 -27.423382,-6.454773 -28.33989,-5.438354c-1.08643,1.203979 2.662296,8.609467 5.548557,10.954926c2.848942,2.314148 6.717987,3.321167 16.114834,4.184326c4.677711,0.43158 14.563919,1.416687 17.014732,1.694946c0.443718,0.050079 0.808632,-0.922516 0.808632,-2.160919zm3.728104,-26.191162c0.369072,-4.062317 0.982796,-8.71579 1.364273,-10.34198c0.381546,-1.62616 0.846039,-8.940918 1.028458,-16.255676c1.604874,-62.924438 1.741653,-64.609985 5.838837,-70.842743c1.982208,-3.020905 1.982208,-3.039734 -0.294388,-3.424377c-1.256592,-0.212677 -3.180733,-1.210236 -4.271347,-2.214111c-1.820511,-1.685638 -2.077583,-4.912994 -3.193085,-40.248322c-0.667648,-21.131195 -1.418243,-42.740875 -1.667091,-48.026001c-0.555672,-11.805496 1.256508,-16.555908 8.911636,-23.360901c4.56163,-4.056107 4.872673,-4.5784 3.342453,-5.626022c-1.530144,-1.047638 -1.965637,-0.928787 -4.67765,1.272812c-1.642204,1.335358 -4.594772,2.889648 -6.560432,3.449402c-3.338249,0.953842 -3.528976,1.197739 -2.948433,3.777802c0.734055,3.239853 -1.584122,8.215408 -5.432419,11.661697c-2.33474,2.095291 -2.579407,2.930283 -2.181267,7.49614c0.489311,5.647919 -1.492905,9.572662 -6.440186,12.749969c-2.272522,1.46048 -2.504761,2.114044 -1.982147,5.579163c0.775375,5.119324 0.024834,6.930054 -4.574043,11.051849c-3.757118,3.361877 -3.786186,3.452545 -2.309906,6.439148c2.409447,4.878571 1.716835,10.207458 -1.795517,13.8414l-3.014866,3.114777l1.944916,3.461914c1.20673,2.15155 1.890995,5.194489 1.803905,8.046539c-0.116127,3.993591 -0.592995,4.984955 -3.657558,7.630585c-3.222107,2.783325 -3.425293,3.255554 -2.38031,5.582275c1.88269,4.190552 1.127953,10.689117 -1.53019,13.240967c-2.185459,2.092163 -2.222721,2.361145 -0.634476,4.434509c2.434166,3.167969 2.185398,9.841644 -0.501759,13.553772l-2.202091,3.042816l2.562843,3.455627c2.882084,3.893555 3.217999,8.040314 0.995239,12.299713c-1.389179,2.664459 -1.322899,2.914642 1.264851,4.800385c4.615444,3.368103 6.970894,8.034027 6.286674,12.437286c-0.331802,2.126556 -0.904091,4.400116 -1.264816,5.050629c-0.364864,0.650421 0.008274,1.751251 0.829407,2.448608c5.146271,4.36261 6.883873,10.59845 4.238098,15.233093c-1.078232,1.891998 -0.912338,2.379852 1.389191,4.065491c5.722786,4.190582 8.003548,10.16684 5.880318,15.423828c-0.933044,2.307953 -0.754738,2.755188 1.658745,4.143707c4.234009,2.43927 6.199608,5.90744 6.257744,11.04248c0.049744,4.231201 0.315109,4.762878 2.931808,5.85434l2.87796,1.197723l0.713264,-4.575226c0.393974,-2.517517 1.020142,-7.899567 1.393356,-11.965088l0,0l0,0zm1049.214226,6.06073c3.707397,-2.642548 7.273682,-5.751099 7.928955,-6.908173c1.625366,-2.874023 1.629517,-9.641479 0.008179,-13.00647c-1.48877,-3.083527 -2.832275,-3.524536 -3.877319,-1.272827c-0.953857,2.051514 -11.768921,9.932312 -16.210205,11.808655c-6.481445,2.739563 -7.924927,8.653259 -3.23877,13.281677c2.832275,2.795837 3.072754,2.877075 5.805664,1.907715c1.567505,-0.553589 5.880249,-3.171173 9.583496,-5.810577zm-1063.744972,2.770813c0,-3.89978 -2.47982,-6.495483 -9.069336,-9.485168c-5.341141,-2.426758 -18.739792,-6.745514 -25.391338,-8.187225c-2.579433,-0.559784 -2.591812,-0.541046 -1.95322,3.687073c0.423,2.798889 1.679459,5.388336 3.674141,7.577454c3.014786,3.305542 3.110191,3.339966 15.832802,5.757385c7.041481,1.33847 13.075165,2.620667 13.415237,2.852051c1.832893,1.254089 3.491714,0.209534 3.491714,-2.201569zm1052.726784,-18.938965c3.92688,-2.514343 8.107056,-5.863647 9.28479,-7.442932c2.51709,-3.377533 2.973267,-9.998016 0.974487,-14.144775l-1.347778,-2.789551l-2.193604,2.467377c-3.400513,3.827881 -11.229858,9.832306 -14.273682,10.945526c-2.653931,0.972626 -2.745117,1.24472 -2.745117,8.268677c0,5.882416 0.302612,7.261475 1.579834,7.261475c0.87085,0 4.793701,-2.054596 8.721069,-4.565796l0,0zm-1060.290764,0.31897c-0.008263,-6.426544 -3.002281,-8.443726 -23.380173,-15.75528c-9.542011,-3.424408 -10.586994,-3.649628 -11.246384,-2.414307c-0.393898,0.747406 -0.634487,2.02655 -0.526684,2.839569c0.381634,2.852112 3.193165,9.306854 4.316952,9.897919c0.622063,0.331482 4.777256,1.551117 9.235195,2.714478c4.453743,1.163361 10.533012,2.999115 13.502243,4.081146c7.663471,2.792664 8.103077,2.717651 8.09885,-1.363525zm-7.132637,-16.868683c1.497055,-2.673767 0.510075,-6.657928 -2.351265,-9.485077c-2.873779,-2.839539 -11.7897,-7.03952 -23.828106,-11.223816c-6.975016,-2.426758 -8.098816,-1.832581 -7.335854,3.89035c0.83354,6.295258 2.131571,7.24588 17.495773,12.818756c7.684242,2.789642 14.286041,5.094391 14.667564,5.119415c0.381554,0.028168 0.991081,-0.475311 1.351887,-1.119629zm1069.583923,-10.229309c2.02356,-4.662842 1.990356,-6.723755 -0.174438,-11.073761l-1.758179,-3.527649l-3.093506,3.871643c-1.704346,2.1297 -4.304443,4.953644 -5.776733,6.276489c-2.247437,2.013947 -2.620728,3.045959 -2.297241,6.357727c0.211426,2.173553 0.439453,5.10379 0.51001,6.511078l0.128662,2.558136l5.440674,-3.665161c3.868896,-2.605072 5.892822,-4.712891 7.020752,-7.308502l0,0zm-1073.946487,-11.18634c0.460346,-2.307983 0.174229,-4.034241 -0.908127,-5.466522c-2.255924,-2.983459 -11.126129,-8.074677 -21.248711,-12.190277c-6.941841,-2.823944 -8.903334,-3.336792 -9.653887,-2.523651c-1.696148,1.829407 -1.588356,5.507141 0.28614,9.700836c1.107161,2.476807 2.289001,3.152344 11.34173,6.461029c5.560936,2.029633 11.922321,4.506409 14.140831,5.500916c2.222801,0.994476 4.33765,1.826324 4.702648,1.851349c0.364902,0.021912 0.966206,-1.476105 1.339375,-3.333679zm1062.629593,-1.241577c3.238647,-3.877838 3.553711,-11.345856 0.6427,-15.145508c-3.230469,-4.212433 -3.811035,-3.571381 -6.14563,6.798706c-0.879272,3.924835 -0.829468,5.882477 0.219604,8.309235c0.754883,1.74823 1.658813,3.177368 2.015625,3.177368c0.356567,0 1.824463,-1.413483 3.2677,-3.139801l0,0zm-1068.974285,-18.970215c0.381443,-1.182068 0.132679,-3.586945 -0.547432,-5.347656c-1.360111,-3.505707 -8.057381,-8.428131 -20.278328,-14.898499l-6.738655,-3.568237l-1.600735,2.620697c-1.924122,3.146057 -2.002907,8.152832 -0.178303,11.073761c0.953835,1.529236 4.93895,3.637054 14.223869,7.521179c7.095356,2.96463 13.245213,5.247589 13.663986,5.069397c0.422989,-0.178284 1.078194,-1.291595 1.455597,-2.470642l0,0zm-0.352486,-20.696472c0.323441,-3.640167 -0.331734,-5.610352 -2.844776,-8.559387c-2.566952,-3.014771 -20.203671,-15.12674 -22.028292,-15.12674c-1.517733,0 -4.474506,5.651001 -4.354212,8.327972c0.21563,4.734711 1.513613,5.923126 13.962536,12.765656c10.848248,5.963776 12.565121,6.670502 13.746964,5.647858c0.742279,-0.641083 1.426502,-2.01712 1.51778,-3.055359l0,0zm1.297905,-20.199219c-0.049706,-2.423615 -0.957832,-5.050568 -2.430012,-7.020782c-2.392742,-3.211761 -17.918736,-15.674042 -19.523623,-15.674042c-1.235744,0 -4.549078,5.760498 -5.092323,8.847198c-0.431273,2.451752 0.140963,2.955231 12.295519,10.826691c7.966187,5.160034 13.137371,7.999573 13.788425,7.577393c0.576416,-0.375214 1.00769,-2.423584 0.962013,-4.556458l0,0zm2.76606,-14.129089c2.927704,-2.411224 3.267704,-5.594757 1.107224,-10.376434c-1.73341,-3.837219 -3.665874,-5.87619 -10.80685,-11.405243c-4.78548,-3.702728 -9.148045,-6.733063 -9.695366,-6.733063c-1.862038,0 -5.561045,6.104431 -5.63151,9.297424c-0.06633,2.974121 0.468628,3.571381 8.36838,9.313141c4.64043,3.374298 9.699547,7.217773 11.242271,8.537476c3.155758,2.705139 3.645119,2.8302 5.415852,1.366699zm3.748711,-23.658081c1.783237,-2.261017 1.849548,-2.945892 0.630398,-6.423462c-1.289757,-3.677704 -8.770733,-12.581116 -13.008839,-15.47702c-1.065712,-0.731781 -2.753475,-2.176575 -3.748722,-3.217987c-2.305721,-2.401733 -3.371468,-1.913879 -6.556293,3.014709c-4.474491,6.917603 -4.076378,7.702576 8.492794,16.693542c6.087692,4.359467 11.325203,7.927734 11.636257,7.933929c0.311001,0.003174 1.459671,-1.13208 2.554405,-2.523712l0,0zm4.57407,-20.377441c2.546234,-2.630096 2.786697,-3.415009 2.160568,-7.061432c-0.584778,-3.386902 -2.069374,-5.579132 -8.509438,-12.559265c-4.292091,-4.65033 -8.244057,-8.353027 -8.779015,-8.231049c-1.642139,0.375244 -6.344727,7.111481 -7.203152,10.320068c-0.792015,2.967804 -0.621983,3.18988 8.932446,11.758636c5.353645,4.803528 9.91518,8.734558 10.13504,8.734558c0.219746,0 1.687786,-1.332184 3.26355,-2.961517l0,0zm10.499977,-22.526001c0.99942,-4.984863 -1.028435,-8.32486 -11.793808,-19.379852c-4.150986,-4.26564 -4.603062,-4.509537 -6.124947,-3.327438c-2.2061,1.716888 -6.216217,7.239731 -6.216217,8.562546c0,0.584824 3.081196,4.171829 6.846508,7.971497c3.765446,3.799652 8.007717,8.349884 9.430103,10.110565l2.583473,3.199219l2.322289,-1.992065c1.277275,-1.097656 2.60836,-3.411896 2.952599,-5.14447l0,0zm5.672943,-15.702133c1.082314,-1.522995 1.903442,-4.099884 1.828743,-5.726089c-0.265373,-5.682297 -7.808601,-21.056091 -10.334023,-21.056091c-2.173019,0 -9.330482,5.938736 -10.425293,8.646973c-1.028431,2.554993 -0.792072,3.096008 3.309219,7.580582c9.811539,10.732864 12.307983,13.297241 12.967339,13.309784c0.377365,0.009384 1.571632,-1.232193 2.654015,-2.755157l0,0zm15.243958,-19.286072c2.002953,-3.011581 1.604889,-8.615067 -1.198448,-16.846756c-1.405739,-4.127747 -2.88208,-7.867661 -3.284302,-8.311737c-1.144577,-1.268723 -10.068665,4.277206 -12.573418,7.81575l-2.202034,3.110092l4.283775,7.011719c2.359634,3.855988 4.632141,8.115341 5.055054,9.463211c0.422997,1.350998 0.991135,2.711365 1.264862,3.027206c0.746414,0.866272 7.174103,-3.042862 8.65451,-5.269485l0,0zm13.655716,-12.332794c2.98172,-1.982697 3.99765,-3.288055 4.159424,-5.356445c0.35656,-4.569 -0.236473,-8.737076 -1.982254,-13.986862c-0.916512,-2.751389 -1.919975,-5.916534 -2.231026,-7.03421c-0.311012,-1.117065 -1.036758,-2.031189 -1.613113,-2.031189c-1.725128,0 -10.458511,5.199753 -11.117867,6.618591c-0.335854,0.723984 1.103104,6.306854 3.19725,12.405731c2.098297,6.099472 3.81102,11.295486 3.81102,11.547852c0,1.068604 2.085869,0.287994 5.776566,-2.163467l0,0zm17.097656,-11.231369c1.83297,-0.733368 4.188446,-2.728287 5.444946,-4.608734c2.015381,-3.016266 2.156357,-4.237503 1.559235,-13.523682c-0.360779,-5.614456 -0.941376,-10.521194 -1.285522,-10.903641c-0.812851,-0.899399 -5.876198,0.891891 -10.6866,3.782471c-5.921722,3.553848 -6.668236,6.22081 -3.902191,13.883957c1.285538,3.551971 2.504707,7.604935 2.711998,9.006302c0.211525,1.401657 0.422966,2.797348 0.472794,3.102295c0.153389,0.908463 2.260078,0.634796 5.685341,-0.738968zm22.078094,-14.952866c2.297394,-1.62059 4.557495,-3.865036 5.013626,-4.986816c1.343597,-3.289886 2.251724,-15.161484 1.43895,-18.853226c-0.742279,-3.394394 -0.75058,-3.399368 -3.947876,-2.636627c-1.766602,0.420593 -5.395065,2.142487 -8.069855,3.827164l-4.864273,3.062897l1.065735,6.158569c0.584732,3.387192 1.148712,8.457169 1.252441,11.266724c0.232162,6.209305 1.778992,6.622375 8.111252,2.161316l0,0zm-48.240814,-4.771347c0.713242,-0.588211 3.446037,-1.63089 6.075233,-2.316727c2.624962,-0.686111 4.773071,-1.509201 4.773071,-1.829147c0,-1.992996 12.225014,-8.856842 18.781258,-10.544617c1.770691,-0.455322 1.949036,-1.038895 1.364349,-4.434189c-1.090637,-6.348434 -2.637436,-8.512207 -7.236366,-10.117142c-4.652809,-1.622757 -7.389755,-3.904755 -13.800842,-11.513138c-5.005257,-5.94062 -8.443115,-7.83889 -14.37735,-7.945534c-7.908104,-0.141968 -9.002838,3.597 -4.192474,14.307076c2.55452,5.69043 3.363159,9.325592 4.279579,19.209122c0.622032,6.704636 1.132103,13.104294 1.136253,14.221695c0.004128,2.241684 1.206757,2.60321 3.197289,0.962601l0,0zm82.10434,-2.025238c2.720413,-1.998993 3.1931,-7.462067 0.580627,-6.777176c-0.891647,0.233917 -1.621506,0.811218 -1.621506,1.282822c0,0.471893 -1.215057,2.080887 -2.699585,3.576065c-1.484619,1.494873 -2.699585,2.90181 -2.699585,3.126678c0,1.068909 4.482742,0.227646 6.440048,-1.208389l0,0zm-15.148575,-1.315338c7.709076,-2.690125 10.869019,-8.96254 10.869019,-21.584335c0,-7.892044 -0.821091,-8.154739 -10.412872,-3.326492l-6.332321,3.187027l0,11.587921c0,6.373093 0.385651,11.588181 0.854279,11.589127c0.468552,0.000946 2.728683,-0.653305 5.021896,-1.453247zm25.453613,-12.684036c5.834656,-3.502243 6.212051,-4.345657 4.839386,-10.817307c-0.962051,-4.549286 -0.903946,-6.714966 0.302811,-10.69162c0.82933,-2.742661 1.202545,-4.986778 0.82518,-4.986778c-1.244095,0 -10.255249,4.181816 -12.100662,5.613808c-1.476288,1.147736 -1.870224,3.399704 -2.160522,12.303436c-0.348297,10.831039 -0.335815,10.8983 2.044449,10.897369c1.31456,-0.000626 4.130295,-1.04422 6.249359,-2.318909l0,0zm-49.688034,-9.510101c0.816895,-1.078903 3.964386,-6.544205 6.995758,-12.145172c6.249451,-11.541908 8.339447,-14.538185 16.881989,-24.200928c7.020691,-7.939583 16.554504,-15.685593 22.011749,-17.892212l3.798538,-1.533638l-5.94249,-0.553513c-4.739914,-0.441559 -11.656937,-0.214859 -16.201843,0.530373c-0.29866,0.048798 -2.48822,0.351196 -4.864365,0.672379c-12.237534,1.652771 -44.048309,12.133919 -53.830826,17.736473c-1.501205,0.858452 -4.46209,2.489319 -6.585274,3.624222c-2.761833,1.477966 -3.856598,2.641647 -3.856598,4.103363c0,4.793503 12.805595,14.234505 22.559097,16.633415c4.304459,1.058624 5.652214,1.847946 7.501717,4.391083c1.235794,1.705002 2.807465,4.596161 3.487534,6.424713c1.886841,5.059326 2.994064,6.197372 4.947235,5.088409c0.887466,-0.50473 2.284988,-1.800049 3.097778,-2.878967l0,0zm73.992935,-0.679565c1.484619,-0.723358 3.562225,-2.323257 4.619736,-3.556061c1.69191,-1.977692 1.779007,-2.859589 0.721527,-7.508621c-1.082336,-4.775078 -0.800446,-10.131187 0.713272,-13.553078c0.787888,-1.778519 -1.020142,-1.619644 -5.992279,0.526291c-10.38382,4.482681 -15.953079,15.219017 -12.618988,24.311638c0.717361,1.958282 0.991104,2.039307 5.308044,1.578964c2.500549,-0.266449 5.760025,-1.076111 7.248688,-1.799133l0,0l0,0zm-42.766846,-9.88414c1.604828,-0.085678 4.151001,-1.318802 6.390366,-3.097275c4.345932,-3.448494 13.784271,-7.50988 18.83931,-8.105949c2.222809,-0.262054 4.905762,-1.454819 7.236313,-3.218918c3.777847,-2.862137 13.94191,-6.77594 17.591156,-6.77594c1.115555,0 3.454361,-1.030762 5.20018,-2.290123c5.390961,-3.892204 11.889191,-6.518845 18.893326,-7.636566c4.362518,-0.695808 7.804398,-1.78537 9.828125,-3.109444c3.748688,-2.457741 3.292694,-2.686668 -7.725754,-3.882874c-4.457779,-0.48349 -13.84642,-1.861671 -20.871292,-3.062241c-16.056732,-2.746078 -22.256378,-2.802361 -29.687592,-0.269585c-8.866058,3.021294 -14.356583,7.983406 -24.458374,22.097832c-10.217926,14.274849 -17.881378,25.352364 -17.881378,25.844276c0,0.183578 3.143295,-1.170227 6.987488,-3.008759c3.848297,-1.838242 8.194275,-3.40657 9.658127,-3.484436l0,0zm65.413086,0.376526c4.66951,-1.569275 8.969757,-5.746056 8.020081,-7.791023c-1.111374,-2.394272 -0.509995,-11.012802 1.05748,-15.139893c1.662933,-4.393211 1.190125,-4.596191 -5.274872,-2.259781c-9.803223,3.541672 -14.617813,9.002533 -14.791992,16.781723c-0.062164,2.714455 0.244705,6.015648 0.680115,7.336327c0.659393,1.987671 1.293839,2.394867 3.682434,2.365463c1.584152,-0.019363 4.565735,-0.601364 6.626755,-1.292816zm22.944809,-9.044762c2.438385,-0.463455 5.299774,-1.832596 7.319305,-3.505386c3.197266,-2.645737 3.296661,-2.942154 2.753571,-8.225113c-0.306946,-3.014397 -0.12442,-6.671471 0.406311,-8.126907c2.330505,-6.397514 2.35965,-6.709938 0.63858,-6.709938c-2.135498,0 -9.031952,3.007515 -12.096466,5.277328c-5.50708,4.075165 -9.454849,14.729256 -7.464447,20.148247c0.771347,2.108734 2.280884,2.312286 8.443146,1.141769zm366.514923,-2.925278c1.783325,-0.310211 2.396912,-0.603271 1.364258,-0.651413c-1.032349,-0.048187 -4.171631,-1.74971 -6.974976,-3.781525c-4.362549,-3.161407 -5.681274,-3.693985 -9.164612,-3.693985c-5.374329,0 -15.094788,-2.996552 -17.346497,-5.34922c-1.6297,-1.701607 -2.50885,-1.882965 -9.479675,-1.955536c-7.908325,-0.082222 -10.711426,-0.69046 -14.742371,-3.198898c-2.143982,-1.331596 -2.828003,-1.377563 -8.248169,-0.5476c-6.879639,1.052353 -11.520081,0.604507 -18.395691,-1.775337c-2.720276,-0.941956 -5.477844,-1.487373 -6.124756,-1.212486c-0.651123,0.275215 -4.09729,0.572311 -7.659424,0.660172c-5.428162,0.134186 -7.451843,-0.203232 -12.544312,-2.089035c-3.591248,-1.329712 -6.552002,-1.99707 -7.248779,-1.632431c-2.392853,1.251869 -11.524292,2.497169 -14.916443,2.033371c-1.920013,-0.263008 -5.63562,-1.187126 -8.252228,-2.054008c-4.059875,-1.342865 -5.270752,-1.450127 -8.206787,-0.723976c-4.789673,1.184616 -11.802185,1.063286 -16.525452,-0.285858c-3.827362,-1.093262 -4.188202,-1.061073 -9.309723,0.845947c-4.287903,1.596497 -6.589294,1.958336 -11.77298,1.851982c-3.541412,-0.072861 -7.763062,-0.599777 -9.376221,-1.170845c-2.65799,-0.940392 -3.437653,-0.870338 -8.248138,0.740547c-6.154022,2.062469 -13.489685,2.345459 -19.113007,0.73774c-3.387878,-0.967606 -3.960144,-0.961357 -5.191772,0.055344c-0.763153,0.628265 -3.60791,1.933296 -6.319977,2.899963c-4.814484,1.715317 -4.855927,1.759094 -1.691956,1.818176c7.252991,0.136047 16.289093,2.235695 22.488586,5.224792c5.668976,2.733871 6.75119,2.997192 10.288544,2.494003c6.888031,-0.980064 34.68045,-0.621063 51.483612,0.665192c22.260406,1.704071 23.608246,1.809464 34.025238,2.665726c5.051117,0.414978 16.471588,1.269684 25.387421,1.899521c8.911621,0.629852 22.52179,1.624313 30.243225,2.210358c20.643188,1.566147 34.485657,2.494995 44.832153,3.008453c5.050903,0.250504 9.384399,0.589203 9.628967,0.752472c0.609619,0.400269 3.197266,0.239227 7.111938,-0.441925l0,0.00032zm67.544556,-4.508301c-7.684143,-4.415131 -18.706543,-4.811676 -29.766357,-1.071442c-13.904358,4.703476 -14.597046,5.962509 -2.940186,5.358002c4.607239,-0.238602 10.317505,-0.194839 12.693787,0.096634c2.940247,0.360611 7.360596,0.052536 13.842407,-0.965393l9.521179,-1.495773l-3.35083,-1.922348l0,0.00032zm-45.400146,-0.295563c3.699097,-2.247864 17.441895,-7.016701 21.497498,-7.460152c4.09314,-0.448143 4.271423,-0.570084 2.86969,-1.93737c-3.230408,-3.155777 -16.25177,-7.46862 -20.858887,-6.909142c-1.036743,0.125732 -3.831665,0.469109 -6.207947,0.763359c-5.382568,0.66613 -16.334595,4.796387 -20.385986,7.689407l-3.052185,2.177261l2.459106,2.273514c2.131531,1.97084 4.262939,2.766724 12.880249,4.799469c2.417542,0.57106 8.953247,-0.273331 10.798462,-1.396347zm-360.796387,-1.705902c5.527832,-1.451111 6.970917,-3.480377 7.659393,-10.783875c0.597046,-6.325897 3.023041,-12.701874 5.76001,-15.145233c0.974457,-0.869675 0.476898,-0.951614 -3.043854,-0.500351c-13.576965,1.738785 -22.310303,11.164757 -21.277771,22.965332c0.178406,2.031509 0.543335,3.939148 0.808716,4.238708c0.580627,0.653625 6.336548,0.212067 10.093506,-0.774582zm332.713623,-9.744064c3.429626,-2.031807 6.539795,-3.694283 6.917053,-3.694283c0.377319,0 2.587769,-0.819977 4.910034,-1.822899c2.322205,-1.002609 6.522949,-2.219414 9.334595,-2.703537l5.113159,-0.880653l-2.463379,-1.364777c-1.355957,-0.750534 -5.204163,-1.909821 -8.546814,-2.575943c-10.910339,-2.172531 -23.05249,0.77681 -33.477783,8.13224c-4.582275,3.232368 -4.126099,4.840446 1.965576,6.941338c7.029053,2.42337 9.181274,2.153786 16.247559,-2.031487l0,0l0,0zm-309.316833,2.525589c6.245209,-0.854355 7.903961,-2.431145 8.509369,-8.077156c0.543365,-5.066238 3.707397,-12.405685 6.763611,-15.689041c1.430756,-1.538643 1.372681,-1.662811 -0.792023,-1.662811c-4.860168,0 -13.829834,4.20842 -18.092957,8.490341c-2.819794,2.834885 -5.743378,10.124619 -5.743378,14.334915c0,2.848625 0.190704,3.033142 3.106018,3.033142c1.708466,0 4.520111,-0.192947 6.249359,-0.42939l0,0zm28.095245,-5.527802c1.38504,-0.360863 2.558563,-0.912857 2.604279,-1.227745c0.045532,-0.314926 0.232178,-1.071136 0.418762,-1.680649c0.186646,-0.609474 0.846008,-2.936844 1.463928,-5.171593c1.451324,-5.235435 4.893311,-10.48333 8.940613,-13.636589c3.483337,-2.7145 2.832367,-3.689606 -1.944855,-2.905273c-13.634979,2.237579 -22.044922,9.610481 -24.018738,21.05703c-0.613861,3.557625 -0.452087,4.346024 0.945404,4.589005c2.143921,0.37278 8.314545,-0.172302 11.590607,-1.024185l0,0zm24.802521,-2.586884c1.592438,-0.675209 2.87381,-2.573479 4.155273,-6.150177c2.123199,-5.926193 6.792511,-12.981697 10.201355,-15.411942l2.334686,-1.662476l-4.093018,0.006905c-4.868439,0.00843 -13.386139,3.16449 -18.233917,6.755585c-4.092926,3.033463 -7.626099,8.661041 -8.604767,13.71196c-0.729889,3.754929 -0.704956,3.794029 2.363617,4.077675c4.22995,0.391518 9.114868,-0.1548 11.87677,-1.327858l0,0l0,0.000328zm234.390869,-3.126381c3.632629,-2.439575 9.089966,-5.407707 12.133728,-6.595772l5.527832,-2.160324l-3.699036,-1.207474c-9.952515,-3.245811 -21.286011,-2.040237 -31.678101,3.370308c-5.1297,2.671005 -10.802673,6.981369 -9.795044,7.446091c0.211609,0.098511 2.073486,1.116737 4.134644,2.261993c3.425171,1.905136 4.304443,2.050232 10.263367,1.701828c6.232971,-0.364632 6.796814,-0.571648 13.11261,-4.81665zm-210.496429,0.929749c5.888641,-1.683403 7.572357,-3.036911 9.50058,-7.63562c1.787292,-4.260956 8.90741,-13.392014 10.441956,-13.392014c0.468414,0 0.854218,-0.355263 0.854218,-0.789345c0,-0.696136 -4.885162,-0.589821 -11.914185,0.258934c-3.080994,0.372162 -11.606964,4.18309 -14.352325,6.414703c-3.122559,2.537834 -7.095276,9.314682 -7.493408,12.776291c-0.236298,2.061211 0.124329,2.403313 2.973297,2.836121c5.075775,0.771217 5.760101,0.739021 9.989868,-0.46907l0,0zm174.414276,-1.633987c7.646851,-6.028809 15.666931,-11.017815 20.124878,-12.521103c4.511841,-1.521408 4.598816,-1.611816 2.309692,-2.450249c-1.310303,-0.478775 -5.610657,-0.884689 -9.558594,-0.901588c-5.63562,-0.023766 -8.343445,0.376228 -12.573242,1.856369c-7.920593,2.773293 -20.444153,12.324364 -18.188293,13.869553c1.38916,0.950096 9.131348,2.804245 11.963806,2.865547c1.492798,0.032196 3.736328,-0.997261 5.921753,-2.718529l0,0zm-28.89978,-0.643303c0.962036,-0.252365 3.881531,-2.496521 6.494141,-4.987114c5.515259,-5.260109 12.730896,-10.172462 17.242676,-11.737053l3.160095,-1.096138l-2.542114,-0.930984c-1.716919,-0.628265 -5.10083,-0.799011 -10.404541,-0.52507c-6.386292,0.330559 -8.725098,0.819366 -12.49884,2.612221c-5.988037,2.844292 -10.599426,6.288399 -14.1698,10.579979c-2.272583,2.732964 -2.571045,3.591057 -1.463928,4.218086c3.433716,1.950188 10.3797,2.863983 14.182312,1.866074zm-111.762878,-2.39209c1.48877,-0.753326 3.910522,-3.481316 5.40741,-6.091019c3.421234,-5.952499 5.62323,-8.713913 9.388672,-11.777718l2.985657,-2.42617l-7.9039,0.453156c-8.306274,0.476593 -11.014038,1.424477 -18.316803,6.419395c-3.321716,2.273232 -8.194336,8.433395 -9.38446,11.867798c-0.539154,1.55645 -0.13681,2.020256 2.38031,2.730743c4.022583,1.136177 12.092285,0.521935 15.443115,-1.176186l0,0l0,0zm85.674805,-0.968811c2.625,-0.909103 5.158752,-2.668205 7.020691,-4.874214c1.604858,-1.898918 5.531982,-5.367363 8.729309,-7.707855c5.150391,-3.770584 5.581665,-4.319748 3.781799,-4.815742c-4.229736,-1.164307 -15.119507,-0.506317 -19.996246,1.208084c-6.104309,2.146568 -13.755249,7.266258 -17.085175,11.434341c-2.210419,2.766098 -2.401184,3.474121 -1.206787,4.457031c3.388123,2.794258 11.188232,2.918388 18.756409,0.298355zm-59.350494,0.775864c1.683777,-0.523178 3.338318,-2.082787 4.516113,-4.248123c2.64975,-4.877014 5.610748,-8.050598 11.544983,-12.37252l5.191803,-3.779968l-3.595459,-0.399048c-13.365265,-1.483597 -26.780518,5.420242 -32.382996,16.663811c-1.604858,3.221764 -1.584015,3.347778 0.667725,4.0933c3.135101,1.037346 10.794403,1.060486 14.057831,0.042549zm28.485077,-1.430428c2.4841,-0.592621 4.113678,-1.918915 6.792694,-5.527481c2.127411,-2.865547 6.000519,-6.363434 9.774261,-8.824295c6.091705,-3.974815 6.178772,-4.088326 3.533112,-4.543045c-4.030823,-0.69207 -13.672302,0.168236 -17.649323,1.574577c-5.540253,1.959282 -12.672943,6.864456 -16.317841,11.218575c-1.845428,2.207886 -3.184784,4.116486 -2.969116,4.242165c4.051392,2.394882 11.254486,3.190475 16.836212,1.859505z" transform="rotate(89.86060333251953 600.3336791992188,597.6231689453125) " fill="#7f3f00" id="path1346"/>
 </g>
</svg>